%TF.GenerationSoftware,KiCad,Pcbnew,9.0.3*%
%TF.CreationDate,2025-07-16T11:43:19+02:00*%
%TF.ProjectId,ElbAltm1,456c6241-6c74-46d3-912e-6b696361645f,1.0*%
%TF.SameCoordinates,Original*%
%TF.FileFunction,Legend,Top*%
%TF.FilePolarity,Positive*%
%FSLAX46Y46*%
G04 Gerber Fmt 4.6, Leading zero omitted, Abs format (unit mm)*
G04 Created by KiCad (PCBNEW 9.0.3) date 2025-07-16 11:43:19*
%MOMM*%
%LPD*%
G01*
G04 APERTURE LIST*
%ADD10C,0.200000*%
%ADD11C,0.150000*%
%ADD12C,0.120000*%
%ADD13C,0.080000*%
%ADD14C,0.100000*%
%ADD15C,0.070000*%
%ADD16C,0.000000*%
G04 APERTURE END LIST*
D10*
G36*
X133125353Y-114375588D02*
G01*
X133070642Y-114370001D01*
X132864912Y-114338930D01*
X132661169Y-114328693D01*
X132558922Y-114331492D01*
X132442694Y-114340417D01*
X132188559Y-114375588D01*
X132062652Y-114785916D01*
X132594979Y-114751020D01*
X132923242Y-114733160D01*
X132994767Y-114743213D01*
X133047439Y-114771994D01*
X133070145Y-114799567D01*
X133079819Y-114833050D01*
X133075161Y-114874851D01*
X133048744Y-114930515D01*
X133006636Y-114970836D01*
X132947532Y-114998787D01*
X132866577Y-115014527D01*
X132542223Y-115032388D01*
X131960681Y-115067284D01*
X131893880Y-115274463D01*
X131860892Y-115414657D01*
X131855600Y-115477836D01*
X131862129Y-115499868D01*
X131890231Y-115507933D01*
X132026870Y-115513149D01*
X132277586Y-115510035D01*
X132528423Y-115506921D01*
X132609023Y-115500784D01*
X132688158Y-115494648D01*
X132759188Y-115503567D01*
X132811134Y-115528628D01*
X132837264Y-115556348D01*
X132848766Y-115591142D01*
X132844107Y-115636064D01*
X132819463Y-115688704D01*
X132780035Y-115728038D01*
X132724688Y-115756557D01*
X132649323Y-115774550D01*
X132475338Y-115787878D01*
X132089274Y-115794151D01*
X131855467Y-115785845D01*
X131700579Y-115765007D01*
X131603296Y-115736613D01*
X131546323Y-115703659D01*
X131506689Y-115652852D01*
X131483408Y-115572781D01*
X131484016Y-115450958D01*
X131520433Y-115271990D01*
X131568780Y-115117233D01*
X131661117Y-114858273D01*
X131753507Y-114599443D01*
X131801556Y-114445655D01*
X131817554Y-114339318D01*
X131833796Y-114232889D01*
X131866872Y-114160961D01*
X131915261Y-114114184D01*
X131979251Y-114086482D01*
X132064117Y-114076635D01*
X132119357Y-114083173D01*
X132165356Y-114102280D01*
X132326478Y-114076746D01*
X132471637Y-114060240D01*
X132612876Y-114050427D01*
X132739205Y-114047326D01*
X132964404Y-114055100D01*
X133134905Y-114075758D01*
X133261518Y-114105944D01*
X133310336Y-114128008D01*
X133339570Y-114155686D01*
X133352703Y-114190338D01*
X133348591Y-114235179D01*
X133323267Y-114284408D01*
X133274585Y-114328785D01*
X133227510Y-114355228D01*
X133178236Y-114370498D01*
X133125353Y-114375588D01*
G37*
G36*
X133613594Y-115546122D02*
G01*
X133582555Y-115624274D01*
X133542766Y-115678138D01*
X133495725Y-115713552D01*
X133440731Y-115734263D01*
X133374969Y-115741394D01*
X133303044Y-115731129D01*
X133253458Y-115702285D01*
X133227166Y-115659174D01*
X133229278Y-115601626D01*
X133623364Y-114179950D01*
X133652234Y-114125921D01*
X133706528Y-114082314D01*
X133773576Y-114056087D01*
X133848678Y-114047326D01*
X133919626Y-114056994D01*
X133968113Y-114083871D01*
X133994074Y-114124530D01*
X133992293Y-114179950D01*
X133613594Y-115546122D01*
G37*
G36*
X134622727Y-114090372D02*
G01*
X134658492Y-114110833D01*
X134675622Y-114144997D01*
X134670799Y-114200832D01*
X134654313Y-114243147D01*
X134637949Y-114285463D01*
X134529627Y-114676556D01*
X134639511Y-114638920D01*
X134736745Y-114613542D01*
X134832401Y-114597506D01*
X134917729Y-114592476D01*
X135042153Y-114600193D01*
X135147267Y-114622018D01*
X135236595Y-114656863D01*
X135312737Y-114704892D01*
X135377150Y-114767506D01*
X135430813Y-114850789D01*
X135461253Y-114943103D01*
X135467709Y-115046770D01*
X135447492Y-115164554D01*
X135402788Y-115278592D01*
X135335084Y-115382737D01*
X135243567Y-115478439D01*
X135126190Y-115566638D01*
X134989079Y-115642083D01*
X134848647Y-115694250D01*
X134703110Y-115725161D01*
X134550143Y-115735532D01*
X134426800Y-115729805D01*
X134313369Y-115713116D01*
X134208448Y-115685890D01*
X134144818Y-115714576D01*
X134077533Y-115723809D01*
X134012225Y-115714312D01*
X133964205Y-115686989D01*
X133937438Y-115646547D01*
X133938315Y-115594940D01*
X133963106Y-115519835D01*
X133988018Y-115444639D01*
X133997158Y-115411666D01*
X134325806Y-115411666D01*
X134439270Y-115446676D01*
X134537557Y-115465825D01*
X134623294Y-115471750D01*
X134732197Y-115462120D01*
X134832457Y-115433497D01*
X134926766Y-115384647D01*
X135005201Y-115321429D01*
X135061653Y-115248812D01*
X135097247Y-115165012D01*
X135110431Y-115077283D01*
X135099684Y-115005524D01*
X135068304Y-114945926D01*
X135028853Y-114906891D01*
X134979886Y-114879404D01*
X134919581Y-114862343D01*
X134844700Y-114856258D01*
X134772587Y-114863048D01*
X134675806Y-114886849D01*
X134574067Y-114922926D01*
X134445852Y-114978532D01*
X134325806Y-115411666D01*
X133997158Y-115411666D01*
X134309198Y-114286012D01*
X134339347Y-114216143D01*
X134388210Y-114155128D01*
X134442503Y-114113345D01*
X134499246Y-114090113D01*
X134560646Y-114082497D01*
X134622727Y-114090372D01*
G37*
G36*
X137199383Y-114190509D02*
G01*
X137245219Y-114213876D01*
X137277030Y-114254092D01*
X137293479Y-114318161D01*
X137286640Y-114646240D01*
X137299097Y-115319984D01*
X137329749Y-115454897D01*
X137344913Y-115537757D01*
X137341228Y-115586788D01*
X137312087Y-115640783D01*
X137255743Y-115685982D01*
X137184040Y-115715781D01*
X137113594Y-115723809D01*
X137072203Y-115714525D01*
X137032263Y-115686502D01*
X136992306Y-115630748D01*
X136953981Y-115533391D01*
X136924899Y-115407781D01*
X136909529Y-115254862D01*
X136579557Y-115279042D01*
X136377503Y-115293275D01*
X136248120Y-115307619D01*
X136138563Y-115432993D01*
X135940862Y-115644674D01*
X135883014Y-115686686D01*
X135822658Y-115710212D01*
X135757558Y-115717947D01*
X135690009Y-115708242D01*
X135635803Y-115679570D01*
X135611194Y-115652146D01*
X135600483Y-115620264D01*
X135604173Y-115581842D01*
X135654975Y-115503967D01*
X135897265Y-115227843D01*
X135892446Y-115196701D01*
X135897753Y-115168492D01*
X135918589Y-115141525D01*
X135964651Y-115115854D01*
X136048573Y-115091739D01*
X136093108Y-115049698D01*
X136514711Y-115049698D01*
X136706563Y-115032296D01*
X136898294Y-115020389D01*
X136905743Y-114674908D01*
X136514711Y-115049698D01*
X136093108Y-115049698D01*
X136316123Y-114839170D01*
X136615705Y-114569944D01*
X136880207Y-114346005D01*
X137028428Y-114234692D01*
X137102541Y-114191248D01*
X137134843Y-114182148D01*
X137199383Y-114190509D01*
G37*
G36*
X138901330Y-115659329D02*
G01*
X138707185Y-115704166D01*
X138388053Y-115750920D01*
X138089717Y-115780070D01*
X137881860Y-115788289D01*
X137773629Y-115780681D01*
X137699286Y-115760880D01*
X137649567Y-115731458D01*
X137618832Y-115692009D01*
X137606163Y-115639264D01*
X137615635Y-115567829D01*
X137732383Y-115242772D01*
X137885101Y-114784569D01*
X138041839Y-114252307D01*
X138069667Y-114198584D01*
X138122073Y-114152839D01*
X138190770Y-114121933D01*
X138266542Y-114111806D01*
X138317253Y-114116694D01*
X138357087Y-114130418D01*
X138388664Y-114152930D01*
X138415952Y-114197397D01*
X138414554Y-114252490D01*
X138256602Y-114788574D01*
X138098870Y-115261182D01*
X138003737Y-115512783D01*
X138214830Y-115500488D01*
X138491670Y-115464090D01*
X138848451Y-115396645D01*
X138909145Y-115389684D01*
X138961832Y-115395284D01*
X139001848Y-115410934D01*
X139032366Y-115436854D01*
X139055043Y-115481014D01*
X139053127Y-115531193D01*
X139026034Y-115583813D01*
X138976917Y-115626016D01*
X138901330Y-115659329D01*
G37*
G36*
X140655848Y-114481101D02*
G01*
X140281546Y-114457654D01*
X140211643Y-114661157D01*
X140124742Y-114955726D01*
X139996637Y-115413132D01*
X140359704Y-115410018D01*
X140410393Y-115414917D01*
X140450003Y-115428646D01*
X140481214Y-115451142D01*
X140508038Y-115495528D01*
X140506616Y-115549877D01*
X140479031Y-115602751D01*
X140426626Y-115648063D01*
X140358091Y-115678612D01*
X140282401Y-115688638D01*
X140057209Y-115691202D01*
X139832017Y-115693767D01*
X139732349Y-115697491D01*
X139562373Y-115711719D01*
X139392503Y-115725946D01*
X139292851Y-115729670D01*
X139242147Y-115724782D01*
X139202493Y-115711082D01*
X139171218Y-115688638D01*
X139144440Y-115644270D01*
X139145939Y-115589536D01*
X139173769Y-115535977D01*
X139226417Y-115489885D01*
X139295252Y-115458544D01*
X139370886Y-115448303D01*
X139613175Y-115436579D01*
X139738472Y-114975418D01*
X139821211Y-114701581D01*
X139912007Y-114445930D01*
X139620381Y-114451792D01*
X139569522Y-114447020D01*
X139529292Y-114433613D01*
X139497160Y-114411675D01*
X139475470Y-114383394D01*
X139466421Y-114350706D01*
X139470782Y-114311749D01*
X139499481Y-114256604D01*
X139551626Y-114212922D01*
X139614497Y-114185350D01*
X139684250Y-114172806D01*
X139825741Y-114167085D01*
X140095677Y-114164562D01*
X140374228Y-114173719D01*
X140759041Y-114205595D01*
X140828890Y-114221776D01*
X140869661Y-114248944D01*
X140888852Y-114288353D01*
X140884337Y-114346371D01*
X140865722Y-114386831D01*
X140834381Y-114420849D01*
X140788960Y-114449502D01*
X140723091Y-114473385D01*
X140655848Y-114481101D01*
G37*
G36*
X141502272Y-114883919D02*
G01*
X141194404Y-115387120D01*
X141080709Y-115618662D01*
X141024212Y-115688143D01*
X140965709Y-115732227D01*
X140904568Y-115756783D01*
X140838420Y-115764841D01*
X140780495Y-115758970D01*
X140737696Y-115742801D01*
X140706162Y-115716481D01*
X140684762Y-115672621D01*
X140687844Y-115618845D01*
X140726794Y-115509703D01*
X140792988Y-115375794D01*
X140892642Y-115212730D01*
X141151295Y-114814859D01*
X141317868Y-114498229D01*
X141405774Y-114352570D01*
X141474891Y-114260747D01*
X141528650Y-114207793D01*
X141593453Y-114166108D01*
X141658490Y-114142827D01*
X141725876Y-114135253D01*
X141781798Y-114141348D01*
X141824100Y-114158398D01*
X141856219Y-114186785D01*
X141878772Y-114229684D01*
X141895334Y-114341940D01*
X141892328Y-114595315D01*
X141888189Y-114868088D01*
X141907348Y-115172430D01*
X142138594Y-114859612D01*
X142375684Y-114505189D01*
X142515757Y-114269892D01*
X142580708Y-114200405D01*
X142645436Y-114156141D01*
X142710907Y-114131535D01*
X142779418Y-114123530D01*
X142840867Y-114132837D01*
X142888440Y-114160288D01*
X142925281Y-114210484D01*
X142948678Y-114293797D01*
X142952129Y-114377201D01*
X142940374Y-114550344D01*
X142918911Y-114843171D01*
X142915731Y-115091060D01*
X142927917Y-115299192D01*
X142951793Y-115584859D01*
X142951365Y-115643941D01*
X142920812Y-115698877D01*
X142860262Y-115745516D01*
X142788855Y-115773527D01*
X142717746Y-115782427D01*
X142655416Y-115773415D01*
X142607310Y-115747069D01*
X142570077Y-115699601D01*
X142545799Y-115621868D01*
X142540060Y-115372832D01*
X142535543Y-115167301D01*
X142548486Y-114840779D01*
X142229627Y-115273089D01*
X142097003Y-115462041D01*
X142014891Y-115568011D01*
X141943130Y-115645865D01*
X141871467Y-115701014D01*
X141797676Y-115731474D01*
X141718915Y-115741394D01*
X141662588Y-115734500D01*
X141618531Y-115714722D01*
X141583656Y-115680607D01*
X141558081Y-115627363D01*
X141536099Y-115436396D01*
X141512219Y-115170220D01*
X141502272Y-114883919D01*
G37*
G36*
X137460701Y-116576245D02*
G01*
X137510855Y-116602314D01*
X137540217Y-116641207D01*
X137540408Y-116690882D01*
X137515263Y-116739278D01*
X137401434Y-116913174D01*
X137522578Y-116910060D01*
X137619141Y-116916935D01*
X137678903Y-116934091D01*
X137713639Y-116958657D01*
X137729767Y-116991439D01*
X137726643Y-117036638D01*
X137698091Y-117091896D01*
X137648915Y-117131538D01*
X137575335Y-117158088D01*
X137500580Y-117167773D01*
X137353562Y-117172102D01*
X137296410Y-117171094D01*
X137238890Y-117171094D01*
X136956179Y-117569698D01*
X137144491Y-117569698D01*
X137256696Y-117577269D01*
X137325661Y-117596050D01*
X137365328Y-117622596D01*
X137383725Y-117657434D01*
X137380918Y-117704887D01*
X137355354Y-117752411D01*
X137308011Y-117789242D01*
X137246605Y-117812897D01*
X137179051Y-117820750D01*
X136983657Y-117821757D01*
X136789972Y-117821757D01*
X136603371Y-118114024D01*
X136559705Y-118169860D01*
X136506150Y-118207486D01*
X136441421Y-118230043D01*
X136361936Y-118237947D01*
X136295595Y-118230288D01*
X136258056Y-118210834D01*
X136240148Y-118179537D01*
X136243479Y-118129778D01*
X136280450Y-118056465D01*
X136433133Y-117821757D01*
X135886518Y-117821757D01*
X135725745Y-118022235D01*
X135625422Y-118156797D01*
X135579419Y-118202338D01*
X135521142Y-118228743D01*
X135446514Y-118237947D01*
X135383748Y-118229111D01*
X135333186Y-118203051D01*
X135309998Y-118177992D01*
X135299858Y-118149152D01*
X135303022Y-118114665D01*
X135329869Y-118074614D01*
X135521741Y-117821757D01*
X135368112Y-117821757D01*
X135321720Y-117816356D01*
X135285480Y-117800963D01*
X135256860Y-117774771D01*
X135236012Y-117731265D01*
X135238175Y-117682997D01*
X135260540Y-117636863D01*
X135296663Y-117603825D01*
X135347997Y-117581383D01*
X135419281Y-117569698D01*
X135719944Y-117569698D01*
X136087530Y-117569698D01*
X136600684Y-117569698D01*
X136875213Y-117176956D01*
X136391368Y-117176956D01*
X136087530Y-117569698D01*
X135719944Y-117569698D01*
X136026591Y-117176956D01*
X135867589Y-117176956D01*
X135709075Y-117174941D01*
X135641412Y-117165812D01*
X135593793Y-117140228D01*
X135567548Y-117101604D01*
X135568514Y-117050377D01*
X135592821Y-117000218D01*
X135632416Y-116963839D01*
X135688975Y-116938665D01*
X135767694Y-116924897D01*
X136206598Y-116913174D01*
X136347282Y-116723855D01*
X136429336Y-116643583D01*
X136490959Y-116606636D01*
X136538890Y-116596635D01*
X136618583Y-116605513D01*
X136663355Y-116627877D01*
X136684634Y-116663360D01*
X136681284Y-116719184D01*
X136651611Y-116783943D01*
X136566123Y-116913174D01*
X137043130Y-116913174D01*
X137204208Y-116669633D01*
X137260467Y-116610316D01*
X137323669Y-116577982D01*
X137396916Y-116567326D01*
X137460701Y-116576245D01*
G37*
G36*
X138583814Y-118214500D02*
G01*
X138053318Y-118214500D01*
X137949334Y-118207608D01*
X137885572Y-118190548D01*
X137849029Y-118166535D01*
X137832097Y-118135196D01*
X137834477Y-118092683D01*
X137857529Y-118045785D01*
X137897068Y-118009278D01*
X137955577Y-117981431D01*
X138038717Y-117962684D01*
X138154557Y-117955572D01*
X138212931Y-117956579D01*
X138465600Y-117045065D01*
X138342129Y-117096455D01*
X138297683Y-117106614D01*
X138229913Y-117096179D01*
X138178615Y-117065581D01*
X138149532Y-117021547D01*
X138149794Y-116970143D01*
X138167538Y-116935709D01*
X138205731Y-116897555D01*
X138271427Y-116854281D01*
X138445694Y-116770108D01*
X138636692Y-116669633D01*
X138716216Y-116637160D01*
X138785096Y-116619622D01*
X138845642Y-116614220D01*
X138896528Y-116621206D01*
X138926326Y-116639735D01*
X138940611Y-116671675D01*
X138935279Y-116725046D01*
X138826591Y-117068970D01*
X138748867Y-117315004D01*
X138637669Y-117702322D01*
X138568793Y-117950717D01*
X138656964Y-117950717D01*
X138726986Y-117960590D01*
X138776765Y-117988544D01*
X138804273Y-118030025D01*
X138803388Y-118082608D01*
X138776216Y-118133914D01*
X138724620Y-118176672D01*
X138657412Y-118205144D01*
X138583814Y-118214500D01*
G37*
D11*
X136517142Y-120091580D02*
X136469523Y-120139200D01*
X136469523Y-120139200D02*
X136326666Y-120186819D01*
X136326666Y-120186819D02*
X136231428Y-120186819D01*
X136231428Y-120186819D02*
X136088571Y-120139200D01*
X136088571Y-120139200D02*
X135993333Y-120043961D01*
X135993333Y-120043961D02*
X135945714Y-119948723D01*
X135945714Y-119948723D02*
X135898095Y-119758247D01*
X135898095Y-119758247D02*
X135898095Y-119615390D01*
X135898095Y-119615390D02*
X135945714Y-119424914D01*
X135945714Y-119424914D02*
X135993333Y-119329676D01*
X135993333Y-119329676D02*
X136088571Y-119234438D01*
X136088571Y-119234438D02*
X136231428Y-119186819D01*
X136231428Y-119186819D02*
X136326666Y-119186819D01*
X136326666Y-119186819D02*
X136469523Y-119234438D01*
X136469523Y-119234438D02*
X136517142Y-119282057D01*
X137469523Y-120186819D02*
X136898095Y-120186819D01*
X137183809Y-120186819D02*
X137183809Y-119186819D01*
X137183809Y-119186819D02*
X137088571Y-119329676D01*
X137088571Y-119329676D02*
X136993333Y-119424914D01*
X136993333Y-119424914D02*
X136898095Y-119472533D01*
X138088571Y-119186819D02*
X138183809Y-119186819D01*
X138183809Y-119186819D02*
X138279047Y-119234438D01*
X138279047Y-119234438D02*
X138326666Y-119282057D01*
X138326666Y-119282057D02*
X138374285Y-119377295D01*
X138374285Y-119377295D02*
X138421904Y-119567771D01*
X138421904Y-119567771D02*
X138421904Y-119805866D01*
X138421904Y-119805866D02*
X138374285Y-119996342D01*
X138374285Y-119996342D02*
X138326666Y-120091580D01*
X138326666Y-120091580D02*
X138279047Y-120139200D01*
X138279047Y-120139200D02*
X138183809Y-120186819D01*
X138183809Y-120186819D02*
X138088571Y-120186819D01*
X138088571Y-120186819D02*
X137993333Y-120139200D01*
X137993333Y-120139200D02*
X137945714Y-120091580D01*
X137945714Y-120091580D02*
X137898095Y-119996342D01*
X137898095Y-119996342D02*
X137850476Y-119805866D01*
X137850476Y-119805866D02*
X137850476Y-119567771D01*
X137850476Y-119567771D02*
X137898095Y-119377295D01*
X137898095Y-119377295D02*
X137945714Y-119282057D01*
X137945714Y-119282057D02*
X137993333Y-119234438D01*
X137993333Y-119234438D02*
X138088571Y-119186819D01*
X156159580Y-85478857D02*
X156207200Y-85526476D01*
X156207200Y-85526476D02*
X156254819Y-85669333D01*
X156254819Y-85669333D02*
X156254819Y-85764571D01*
X156254819Y-85764571D02*
X156207200Y-85907428D01*
X156207200Y-85907428D02*
X156111961Y-86002666D01*
X156111961Y-86002666D02*
X156016723Y-86050285D01*
X156016723Y-86050285D02*
X155826247Y-86097904D01*
X155826247Y-86097904D02*
X155683390Y-86097904D01*
X155683390Y-86097904D02*
X155492914Y-86050285D01*
X155492914Y-86050285D02*
X155397676Y-86002666D01*
X155397676Y-86002666D02*
X155302438Y-85907428D01*
X155302438Y-85907428D02*
X155254819Y-85764571D01*
X155254819Y-85764571D02*
X155254819Y-85669333D01*
X155254819Y-85669333D02*
X155302438Y-85526476D01*
X155302438Y-85526476D02*
X155350057Y-85478857D01*
X156254819Y-84526476D02*
X156254819Y-85097904D01*
X156254819Y-84812190D02*
X155254819Y-84812190D01*
X155254819Y-84812190D02*
X155397676Y-84907428D01*
X155397676Y-84907428D02*
X155492914Y-85002666D01*
X155492914Y-85002666D02*
X155540533Y-85097904D01*
X155254819Y-84193142D02*
X155254819Y-83574095D01*
X155254819Y-83574095D02*
X155635771Y-83907428D01*
X155635771Y-83907428D02*
X155635771Y-83764571D01*
X155635771Y-83764571D02*
X155683390Y-83669333D01*
X155683390Y-83669333D02*
X155731009Y-83621714D01*
X155731009Y-83621714D02*
X155826247Y-83574095D01*
X155826247Y-83574095D02*
X156064342Y-83574095D01*
X156064342Y-83574095D02*
X156159580Y-83621714D01*
X156159580Y-83621714D02*
X156207200Y-83669333D01*
X156207200Y-83669333D02*
X156254819Y-83764571D01*
X156254819Y-83764571D02*
X156254819Y-84050285D01*
X156254819Y-84050285D02*
X156207200Y-84145523D01*
X156207200Y-84145523D02*
X156159580Y-84193142D01*
X149958819Y-91328904D02*
X150768342Y-91328904D01*
X150768342Y-91328904D02*
X150863580Y-91281285D01*
X150863580Y-91281285D02*
X150911200Y-91233666D01*
X150911200Y-91233666D02*
X150958819Y-91138428D01*
X150958819Y-91138428D02*
X150958819Y-90947952D01*
X150958819Y-90947952D02*
X150911200Y-90852714D01*
X150911200Y-90852714D02*
X150863580Y-90805095D01*
X150863580Y-90805095D02*
X150768342Y-90757476D01*
X150768342Y-90757476D02*
X149958819Y-90757476D01*
X149958819Y-90376523D02*
X149958819Y-89757476D01*
X149958819Y-89757476D02*
X150339771Y-90090809D01*
X150339771Y-90090809D02*
X150339771Y-89947952D01*
X150339771Y-89947952D02*
X150387390Y-89852714D01*
X150387390Y-89852714D02*
X150435009Y-89805095D01*
X150435009Y-89805095D02*
X150530247Y-89757476D01*
X150530247Y-89757476D02*
X150768342Y-89757476D01*
X150768342Y-89757476D02*
X150863580Y-89805095D01*
X150863580Y-89805095D02*
X150911200Y-89852714D01*
X150911200Y-89852714D02*
X150958819Y-89947952D01*
X150958819Y-89947952D02*
X150958819Y-90233666D01*
X150958819Y-90233666D02*
X150911200Y-90328904D01*
X150911200Y-90328904D02*
X150863580Y-90376523D01*
X165568333Y-121771580D02*
X165520714Y-121819200D01*
X165520714Y-121819200D02*
X165377857Y-121866819D01*
X165377857Y-121866819D02*
X165282619Y-121866819D01*
X165282619Y-121866819D02*
X165139762Y-121819200D01*
X165139762Y-121819200D02*
X165044524Y-121723961D01*
X165044524Y-121723961D02*
X164996905Y-121628723D01*
X164996905Y-121628723D02*
X164949286Y-121438247D01*
X164949286Y-121438247D02*
X164949286Y-121295390D01*
X164949286Y-121295390D02*
X164996905Y-121104914D01*
X164996905Y-121104914D02*
X165044524Y-121009676D01*
X165044524Y-121009676D02*
X165139762Y-120914438D01*
X165139762Y-120914438D02*
X165282619Y-120866819D01*
X165282619Y-120866819D02*
X165377857Y-120866819D01*
X165377857Y-120866819D02*
X165520714Y-120914438D01*
X165520714Y-120914438D02*
X165568333Y-120962057D01*
X166139762Y-121295390D02*
X166044524Y-121247771D01*
X166044524Y-121247771D02*
X165996905Y-121200152D01*
X165996905Y-121200152D02*
X165949286Y-121104914D01*
X165949286Y-121104914D02*
X165949286Y-121057295D01*
X165949286Y-121057295D02*
X165996905Y-120962057D01*
X165996905Y-120962057D02*
X166044524Y-120914438D01*
X166044524Y-120914438D02*
X166139762Y-120866819D01*
X166139762Y-120866819D02*
X166330238Y-120866819D01*
X166330238Y-120866819D02*
X166425476Y-120914438D01*
X166425476Y-120914438D02*
X166473095Y-120962057D01*
X166473095Y-120962057D02*
X166520714Y-121057295D01*
X166520714Y-121057295D02*
X166520714Y-121104914D01*
X166520714Y-121104914D02*
X166473095Y-121200152D01*
X166473095Y-121200152D02*
X166425476Y-121247771D01*
X166425476Y-121247771D02*
X166330238Y-121295390D01*
X166330238Y-121295390D02*
X166139762Y-121295390D01*
X166139762Y-121295390D02*
X166044524Y-121343009D01*
X166044524Y-121343009D02*
X165996905Y-121390628D01*
X165996905Y-121390628D02*
X165949286Y-121485866D01*
X165949286Y-121485866D02*
X165949286Y-121676342D01*
X165949286Y-121676342D02*
X165996905Y-121771580D01*
X165996905Y-121771580D02*
X166044524Y-121819200D01*
X166044524Y-121819200D02*
X166139762Y-121866819D01*
X166139762Y-121866819D02*
X166330238Y-121866819D01*
X166330238Y-121866819D02*
X166425476Y-121819200D01*
X166425476Y-121819200D02*
X166473095Y-121771580D01*
X166473095Y-121771580D02*
X166520714Y-121676342D01*
X166520714Y-121676342D02*
X166520714Y-121485866D01*
X166520714Y-121485866D02*
X166473095Y-121390628D01*
X166473095Y-121390628D02*
X166425476Y-121343009D01*
X166425476Y-121343009D02*
X166330238Y-121295390D01*
X158442819Y-103798666D02*
X157966628Y-104131999D01*
X158442819Y-104370094D02*
X157442819Y-104370094D01*
X157442819Y-104370094D02*
X157442819Y-103989142D01*
X157442819Y-103989142D02*
X157490438Y-103893904D01*
X157490438Y-103893904D02*
X157538057Y-103846285D01*
X157538057Y-103846285D02*
X157633295Y-103798666D01*
X157633295Y-103798666D02*
X157776152Y-103798666D01*
X157776152Y-103798666D02*
X157871390Y-103846285D01*
X157871390Y-103846285D02*
X157919009Y-103893904D01*
X157919009Y-103893904D02*
X157966628Y-103989142D01*
X157966628Y-103989142D02*
X157966628Y-104370094D01*
X157442819Y-102941523D02*
X157442819Y-103131999D01*
X157442819Y-103131999D02*
X157490438Y-103227237D01*
X157490438Y-103227237D02*
X157538057Y-103274856D01*
X157538057Y-103274856D02*
X157680914Y-103370094D01*
X157680914Y-103370094D02*
X157871390Y-103417713D01*
X157871390Y-103417713D02*
X158252342Y-103417713D01*
X158252342Y-103417713D02*
X158347580Y-103370094D01*
X158347580Y-103370094D02*
X158395200Y-103322475D01*
X158395200Y-103322475D02*
X158442819Y-103227237D01*
X158442819Y-103227237D02*
X158442819Y-103036761D01*
X158442819Y-103036761D02*
X158395200Y-102941523D01*
X158395200Y-102941523D02*
X158347580Y-102893904D01*
X158347580Y-102893904D02*
X158252342Y-102846285D01*
X158252342Y-102846285D02*
X158014247Y-102846285D01*
X158014247Y-102846285D02*
X157919009Y-102893904D01*
X157919009Y-102893904D02*
X157871390Y-102941523D01*
X157871390Y-102941523D02*
X157823771Y-103036761D01*
X157823771Y-103036761D02*
X157823771Y-103227237D01*
X157823771Y-103227237D02*
X157871390Y-103322475D01*
X157871390Y-103322475D02*
X157919009Y-103370094D01*
X157919009Y-103370094D02*
X158014247Y-103417713D01*
X136457095Y-89487819D02*
X136457095Y-90297342D01*
X136457095Y-90297342D02*
X136504714Y-90392580D01*
X136504714Y-90392580D02*
X136552333Y-90440200D01*
X136552333Y-90440200D02*
X136647571Y-90487819D01*
X136647571Y-90487819D02*
X136838047Y-90487819D01*
X136838047Y-90487819D02*
X136933285Y-90440200D01*
X136933285Y-90440200D02*
X136980904Y-90392580D01*
X136980904Y-90392580D02*
X137028523Y-90297342D01*
X137028523Y-90297342D02*
X137028523Y-89487819D01*
X137933285Y-89821152D02*
X137933285Y-90487819D01*
X137695190Y-89440200D02*
X137457095Y-90154485D01*
X137457095Y-90154485D02*
X138076142Y-90154485D01*
X169015580Y-85478857D02*
X169063200Y-85526476D01*
X169063200Y-85526476D02*
X169110819Y-85669333D01*
X169110819Y-85669333D02*
X169110819Y-85764571D01*
X169110819Y-85764571D02*
X169063200Y-85907428D01*
X169063200Y-85907428D02*
X168967961Y-86002666D01*
X168967961Y-86002666D02*
X168872723Y-86050285D01*
X168872723Y-86050285D02*
X168682247Y-86097904D01*
X168682247Y-86097904D02*
X168539390Y-86097904D01*
X168539390Y-86097904D02*
X168348914Y-86050285D01*
X168348914Y-86050285D02*
X168253676Y-86002666D01*
X168253676Y-86002666D02*
X168158438Y-85907428D01*
X168158438Y-85907428D02*
X168110819Y-85764571D01*
X168110819Y-85764571D02*
X168110819Y-85669333D01*
X168110819Y-85669333D02*
X168158438Y-85526476D01*
X168158438Y-85526476D02*
X168206057Y-85478857D01*
X169110819Y-84526476D02*
X169110819Y-85097904D01*
X169110819Y-84812190D02*
X168110819Y-84812190D01*
X168110819Y-84812190D02*
X168253676Y-84907428D01*
X168253676Y-84907428D02*
X168348914Y-85002666D01*
X168348914Y-85002666D02*
X168396533Y-85097904D01*
X168444152Y-83669333D02*
X169110819Y-83669333D01*
X168063200Y-83907428D02*
X168777485Y-84145523D01*
X168777485Y-84145523D02*
X168777485Y-83526476D01*
X149806819Y-98740166D02*
X149330628Y-99073499D01*
X149806819Y-99311594D02*
X148806819Y-99311594D01*
X148806819Y-99311594D02*
X148806819Y-98930642D01*
X148806819Y-98930642D02*
X148854438Y-98835404D01*
X148854438Y-98835404D02*
X148902057Y-98787785D01*
X148902057Y-98787785D02*
X148997295Y-98740166D01*
X148997295Y-98740166D02*
X149140152Y-98740166D01*
X149140152Y-98740166D02*
X149235390Y-98787785D01*
X149235390Y-98787785D02*
X149283009Y-98835404D01*
X149283009Y-98835404D02*
X149330628Y-98930642D01*
X149330628Y-98930642D02*
X149330628Y-99311594D01*
X148806819Y-97835404D02*
X148806819Y-98311594D01*
X148806819Y-98311594D02*
X149283009Y-98359213D01*
X149283009Y-98359213D02*
X149235390Y-98311594D01*
X149235390Y-98311594D02*
X149187771Y-98216356D01*
X149187771Y-98216356D02*
X149187771Y-97978261D01*
X149187771Y-97978261D02*
X149235390Y-97883023D01*
X149235390Y-97883023D02*
X149283009Y-97835404D01*
X149283009Y-97835404D02*
X149378247Y-97787785D01*
X149378247Y-97787785D02*
X149616342Y-97787785D01*
X149616342Y-97787785D02*
X149711580Y-97835404D01*
X149711580Y-97835404D02*
X149759200Y-97883023D01*
X149759200Y-97883023D02*
X149806819Y-97978261D01*
X149806819Y-97978261D02*
X149806819Y-98216356D01*
X149806819Y-98216356D02*
X149759200Y-98311594D01*
X149759200Y-98311594D02*
X149711580Y-98359213D01*
X154378819Y-103798666D02*
X153902628Y-104131999D01*
X154378819Y-104370094D02*
X153378819Y-104370094D01*
X153378819Y-104370094D02*
X153378819Y-103989142D01*
X153378819Y-103989142D02*
X153426438Y-103893904D01*
X153426438Y-103893904D02*
X153474057Y-103846285D01*
X153474057Y-103846285D02*
X153569295Y-103798666D01*
X153569295Y-103798666D02*
X153712152Y-103798666D01*
X153712152Y-103798666D02*
X153807390Y-103846285D01*
X153807390Y-103846285D02*
X153855009Y-103893904D01*
X153855009Y-103893904D02*
X153902628Y-103989142D01*
X153902628Y-103989142D02*
X153902628Y-104370094D01*
X154378819Y-102846285D02*
X154378819Y-103417713D01*
X154378819Y-103131999D02*
X153378819Y-103131999D01*
X153378819Y-103131999D02*
X153521676Y-103227237D01*
X153521676Y-103227237D02*
X153616914Y-103322475D01*
X153616914Y-103322475D02*
X153664533Y-103417713D01*
X156410819Y-103798666D02*
X155934628Y-104131999D01*
X156410819Y-104370094D02*
X155410819Y-104370094D01*
X155410819Y-104370094D02*
X155410819Y-103989142D01*
X155410819Y-103989142D02*
X155458438Y-103893904D01*
X155458438Y-103893904D02*
X155506057Y-103846285D01*
X155506057Y-103846285D02*
X155601295Y-103798666D01*
X155601295Y-103798666D02*
X155744152Y-103798666D01*
X155744152Y-103798666D02*
X155839390Y-103846285D01*
X155839390Y-103846285D02*
X155887009Y-103893904D01*
X155887009Y-103893904D02*
X155934628Y-103989142D01*
X155934628Y-103989142D02*
X155934628Y-104370094D01*
X155506057Y-103417713D02*
X155458438Y-103370094D01*
X155458438Y-103370094D02*
X155410819Y-103274856D01*
X155410819Y-103274856D02*
X155410819Y-103036761D01*
X155410819Y-103036761D02*
X155458438Y-102941523D01*
X155458438Y-102941523D02*
X155506057Y-102893904D01*
X155506057Y-102893904D02*
X155601295Y-102846285D01*
X155601295Y-102846285D02*
X155696533Y-102846285D01*
X155696533Y-102846285D02*
X155839390Y-102893904D01*
X155839390Y-102893904D02*
X156410819Y-103465332D01*
X156410819Y-103465332D02*
X156410819Y-102846285D01*
X169015580Y-89542857D02*
X169063200Y-89590476D01*
X169063200Y-89590476D02*
X169110819Y-89733333D01*
X169110819Y-89733333D02*
X169110819Y-89828571D01*
X169110819Y-89828571D02*
X169063200Y-89971428D01*
X169063200Y-89971428D02*
X168967961Y-90066666D01*
X168967961Y-90066666D02*
X168872723Y-90114285D01*
X168872723Y-90114285D02*
X168682247Y-90161904D01*
X168682247Y-90161904D02*
X168539390Y-90161904D01*
X168539390Y-90161904D02*
X168348914Y-90114285D01*
X168348914Y-90114285D02*
X168253676Y-90066666D01*
X168253676Y-90066666D02*
X168158438Y-89971428D01*
X168158438Y-89971428D02*
X168110819Y-89828571D01*
X168110819Y-89828571D02*
X168110819Y-89733333D01*
X168110819Y-89733333D02*
X168158438Y-89590476D01*
X168158438Y-89590476D02*
X168206057Y-89542857D01*
X169110819Y-88590476D02*
X169110819Y-89161904D01*
X169110819Y-88876190D02*
X168110819Y-88876190D01*
X168110819Y-88876190D02*
X168253676Y-88971428D01*
X168253676Y-88971428D02*
X168348914Y-89066666D01*
X168348914Y-89066666D02*
X168396533Y-89161904D01*
X169110819Y-87638095D02*
X169110819Y-88209523D01*
X169110819Y-87923809D02*
X168110819Y-87923809D01*
X168110819Y-87923809D02*
X168253676Y-88019047D01*
X168253676Y-88019047D02*
X168348914Y-88114285D01*
X168348914Y-88114285D02*
X168396533Y-88209523D01*
X166393905Y-104594819D02*
X166393905Y-103594819D01*
X166393905Y-103594819D02*
X166632000Y-103594819D01*
X166632000Y-103594819D02*
X166774857Y-103642438D01*
X166774857Y-103642438D02*
X166870095Y-103737676D01*
X166870095Y-103737676D02*
X166917714Y-103832914D01*
X166917714Y-103832914D02*
X166965333Y-104023390D01*
X166965333Y-104023390D02*
X166965333Y-104166247D01*
X166965333Y-104166247D02*
X166917714Y-104356723D01*
X166917714Y-104356723D02*
X166870095Y-104451961D01*
X166870095Y-104451961D02*
X166774857Y-104547200D01*
X166774857Y-104547200D02*
X166632000Y-104594819D01*
X166632000Y-104594819D02*
X166393905Y-104594819D01*
X167346286Y-103690057D02*
X167393905Y-103642438D01*
X167393905Y-103642438D02*
X167489143Y-103594819D01*
X167489143Y-103594819D02*
X167727238Y-103594819D01*
X167727238Y-103594819D02*
X167822476Y-103642438D01*
X167822476Y-103642438D02*
X167870095Y-103690057D01*
X167870095Y-103690057D02*
X167917714Y-103785295D01*
X167917714Y-103785295D02*
X167917714Y-103880533D01*
X167917714Y-103880533D02*
X167870095Y-104023390D01*
X167870095Y-104023390D02*
X167298667Y-104594819D01*
X167298667Y-104594819D02*
X167917714Y-104594819D01*
X157623819Y-89153904D02*
X158433342Y-89153904D01*
X158433342Y-89153904D02*
X158528580Y-89106285D01*
X158528580Y-89106285D02*
X158576200Y-89058666D01*
X158576200Y-89058666D02*
X158623819Y-88963428D01*
X158623819Y-88963428D02*
X158623819Y-88772952D01*
X158623819Y-88772952D02*
X158576200Y-88677714D01*
X158576200Y-88677714D02*
X158528580Y-88630095D01*
X158528580Y-88630095D02*
X158433342Y-88582476D01*
X158433342Y-88582476D02*
X157623819Y-88582476D01*
X157623819Y-87677714D02*
X157623819Y-87868190D01*
X157623819Y-87868190D02*
X157671438Y-87963428D01*
X157671438Y-87963428D02*
X157719057Y-88011047D01*
X157719057Y-88011047D02*
X157861914Y-88106285D01*
X157861914Y-88106285D02*
X158052390Y-88153904D01*
X158052390Y-88153904D02*
X158433342Y-88153904D01*
X158433342Y-88153904D02*
X158528580Y-88106285D01*
X158528580Y-88106285D02*
X158576200Y-88058666D01*
X158576200Y-88058666D02*
X158623819Y-87963428D01*
X158623819Y-87963428D02*
X158623819Y-87772952D01*
X158623819Y-87772952D02*
X158576200Y-87677714D01*
X158576200Y-87677714D02*
X158528580Y-87630095D01*
X158528580Y-87630095D02*
X158433342Y-87582476D01*
X158433342Y-87582476D02*
X158195247Y-87582476D01*
X158195247Y-87582476D02*
X158100009Y-87630095D01*
X158100009Y-87630095D02*
X158052390Y-87677714D01*
X158052390Y-87677714D02*
X158004771Y-87772952D01*
X158004771Y-87772952D02*
X158004771Y-87963428D01*
X158004771Y-87963428D02*
X158052390Y-88058666D01*
X158052390Y-88058666D02*
X158100009Y-88106285D01*
X158100009Y-88106285D02*
X158195247Y-88153904D01*
X135405905Y-107274819D02*
X135405905Y-106274819D01*
X135405905Y-106274819D02*
X135644000Y-106274819D01*
X135644000Y-106274819D02*
X135786857Y-106322438D01*
X135786857Y-106322438D02*
X135882095Y-106417676D01*
X135882095Y-106417676D02*
X135929714Y-106512914D01*
X135929714Y-106512914D02*
X135977333Y-106703390D01*
X135977333Y-106703390D02*
X135977333Y-106846247D01*
X135977333Y-106846247D02*
X135929714Y-107036723D01*
X135929714Y-107036723D02*
X135882095Y-107131961D01*
X135882095Y-107131961D02*
X135786857Y-107227200D01*
X135786857Y-107227200D02*
X135644000Y-107274819D01*
X135644000Y-107274819D02*
X135405905Y-107274819D01*
X136929714Y-107274819D02*
X136358286Y-107274819D01*
X136644000Y-107274819D02*
X136644000Y-106274819D01*
X136644000Y-106274819D02*
X136548762Y-106417676D01*
X136548762Y-106417676D02*
X136453524Y-106512914D01*
X136453524Y-106512914D02*
X136358286Y-106560533D01*
X147171580Y-106338666D02*
X147219200Y-106386285D01*
X147219200Y-106386285D02*
X147266819Y-106529142D01*
X147266819Y-106529142D02*
X147266819Y-106624380D01*
X147266819Y-106624380D02*
X147219200Y-106767237D01*
X147219200Y-106767237D02*
X147123961Y-106862475D01*
X147123961Y-106862475D02*
X147028723Y-106910094D01*
X147028723Y-106910094D02*
X146838247Y-106957713D01*
X146838247Y-106957713D02*
X146695390Y-106957713D01*
X146695390Y-106957713D02*
X146504914Y-106910094D01*
X146504914Y-106910094D02*
X146409676Y-106862475D01*
X146409676Y-106862475D02*
X146314438Y-106767237D01*
X146314438Y-106767237D02*
X146266819Y-106624380D01*
X146266819Y-106624380D02*
X146266819Y-106529142D01*
X146266819Y-106529142D02*
X146314438Y-106386285D01*
X146314438Y-106386285D02*
X146362057Y-106338666D01*
X146362057Y-105957713D02*
X146314438Y-105910094D01*
X146314438Y-105910094D02*
X146266819Y-105814856D01*
X146266819Y-105814856D02*
X146266819Y-105576761D01*
X146266819Y-105576761D02*
X146314438Y-105481523D01*
X146314438Y-105481523D02*
X146362057Y-105433904D01*
X146362057Y-105433904D02*
X146457295Y-105386285D01*
X146457295Y-105386285D02*
X146552533Y-105386285D01*
X146552533Y-105386285D02*
X146695390Y-105433904D01*
X146695390Y-105433904D02*
X147266819Y-106005332D01*
X147266819Y-106005332D02*
X147266819Y-105386285D01*
X140567580Y-98718666D02*
X140615200Y-98766285D01*
X140615200Y-98766285D02*
X140662819Y-98909142D01*
X140662819Y-98909142D02*
X140662819Y-99004380D01*
X140662819Y-99004380D02*
X140615200Y-99147237D01*
X140615200Y-99147237D02*
X140519961Y-99242475D01*
X140519961Y-99242475D02*
X140424723Y-99290094D01*
X140424723Y-99290094D02*
X140234247Y-99337713D01*
X140234247Y-99337713D02*
X140091390Y-99337713D01*
X140091390Y-99337713D02*
X139900914Y-99290094D01*
X139900914Y-99290094D02*
X139805676Y-99242475D01*
X139805676Y-99242475D02*
X139710438Y-99147237D01*
X139710438Y-99147237D02*
X139662819Y-99004380D01*
X139662819Y-99004380D02*
X139662819Y-98909142D01*
X139662819Y-98909142D02*
X139710438Y-98766285D01*
X139710438Y-98766285D02*
X139758057Y-98718666D01*
X139662819Y-98385332D02*
X139662819Y-97718666D01*
X139662819Y-97718666D02*
X140662819Y-98147237D01*
X144018095Y-98654819D02*
X144018095Y-99464342D01*
X144018095Y-99464342D02*
X144065714Y-99559580D01*
X144065714Y-99559580D02*
X144113333Y-99607200D01*
X144113333Y-99607200D02*
X144208571Y-99654819D01*
X144208571Y-99654819D02*
X144399047Y-99654819D01*
X144399047Y-99654819D02*
X144494285Y-99607200D01*
X144494285Y-99607200D02*
X144541904Y-99559580D01*
X144541904Y-99559580D02*
X144589523Y-99464342D01*
X144589523Y-99464342D02*
X144589523Y-98654819D01*
X145541904Y-98654819D02*
X145065714Y-98654819D01*
X145065714Y-98654819D02*
X145018095Y-99131009D01*
X145018095Y-99131009D02*
X145065714Y-99083390D01*
X145065714Y-99083390D02*
X145160952Y-99035771D01*
X145160952Y-99035771D02*
X145399047Y-99035771D01*
X145399047Y-99035771D02*
X145494285Y-99083390D01*
X145494285Y-99083390D02*
X145541904Y-99131009D01*
X145541904Y-99131009D02*
X145589523Y-99226247D01*
X145589523Y-99226247D02*
X145589523Y-99464342D01*
X145589523Y-99464342D02*
X145541904Y-99559580D01*
X145541904Y-99559580D02*
X145494285Y-99607200D01*
X145494285Y-99607200D02*
X145399047Y-99654819D01*
X145399047Y-99654819D02*
X145160952Y-99654819D01*
X145160952Y-99654819D02*
X145065714Y-99607200D01*
X145065714Y-99607200D02*
X145018095Y-99559580D01*
X163563666Y-91164819D02*
X163563666Y-91879104D01*
X163563666Y-91879104D02*
X163516047Y-92021961D01*
X163516047Y-92021961D02*
X163420809Y-92117200D01*
X163420809Y-92117200D02*
X163277952Y-92164819D01*
X163277952Y-92164819D02*
X163182714Y-92164819D01*
X163992238Y-91260057D02*
X164039857Y-91212438D01*
X164039857Y-91212438D02*
X164135095Y-91164819D01*
X164135095Y-91164819D02*
X164373190Y-91164819D01*
X164373190Y-91164819D02*
X164468428Y-91212438D01*
X164468428Y-91212438D02*
X164516047Y-91260057D01*
X164516047Y-91260057D02*
X164563666Y-91355295D01*
X164563666Y-91355295D02*
X164563666Y-91450533D01*
X164563666Y-91450533D02*
X164516047Y-91593390D01*
X164516047Y-91593390D02*
X163944619Y-92164819D01*
X163944619Y-92164819D02*
X164563666Y-92164819D01*
X167012761Y-115511990D02*
X166869904Y-115464371D01*
X166869904Y-115464371D02*
X166822285Y-115416752D01*
X166822285Y-115416752D02*
X166774666Y-115321514D01*
X166774666Y-115321514D02*
X166774666Y-115178657D01*
X166774666Y-115178657D02*
X166822285Y-115083419D01*
X166822285Y-115083419D02*
X166869904Y-115035800D01*
X166869904Y-115035800D02*
X166965142Y-114988180D01*
X166965142Y-114988180D02*
X167346094Y-114988180D01*
X167346094Y-114988180D02*
X167346094Y-115988180D01*
X167346094Y-115988180D02*
X167012761Y-115988180D01*
X167012761Y-115988180D02*
X166917523Y-115940561D01*
X166917523Y-115940561D02*
X166869904Y-115892942D01*
X166869904Y-115892942D02*
X166822285Y-115797704D01*
X166822285Y-115797704D02*
X166822285Y-115702466D01*
X166822285Y-115702466D02*
X166869904Y-115607228D01*
X166869904Y-115607228D02*
X166917523Y-115559609D01*
X166917523Y-115559609D02*
X167012761Y-115511990D01*
X167012761Y-115511990D02*
X167346094Y-115511990D01*
X166346094Y-115988180D02*
X166346094Y-115178657D01*
X166346094Y-115178657D02*
X166298475Y-115083419D01*
X166298475Y-115083419D02*
X166250856Y-115035800D01*
X166250856Y-115035800D02*
X166155618Y-114988180D01*
X166155618Y-114988180D02*
X165965142Y-114988180D01*
X165965142Y-114988180D02*
X165869904Y-115035800D01*
X165869904Y-115035800D02*
X165822285Y-115083419D01*
X165822285Y-115083419D02*
X165774666Y-115178657D01*
X165774666Y-115178657D02*
X165774666Y-115988180D01*
X165393713Y-115988180D02*
X164727047Y-115988180D01*
X164727047Y-115988180D02*
X165393713Y-114988180D01*
X165393713Y-114988180D02*
X164727047Y-114988180D01*
X163822285Y-114988180D02*
X164393713Y-114988180D01*
X164107999Y-114988180D02*
X164107999Y-115988180D01*
X164107999Y-115988180D02*
X164203237Y-115845323D01*
X164203237Y-115845323D02*
X164298475Y-115750085D01*
X164298475Y-115750085D02*
X164393713Y-115702466D01*
X170781866Y-114248951D02*
X170781866Y-113487047D01*
X171162819Y-113867999D02*
X170400914Y-113867999D01*
X149489333Y-83671580D02*
X149441714Y-83719200D01*
X149441714Y-83719200D02*
X149298857Y-83766819D01*
X149298857Y-83766819D02*
X149203619Y-83766819D01*
X149203619Y-83766819D02*
X149060762Y-83719200D01*
X149060762Y-83719200D02*
X148965524Y-83623961D01*
X148965524Y-83623961D02*
X148917905Y-83528723D01*
X148917905Y-83528723D02*
X148870286Y-83338247D01*
X148870286Y-83338247D02*
X148870286Y-83195390D01*
X148870286Y-83195390D02*
X148917905Y-83004914D01*
X148917905Y-83004914D02*
X148965524Y-82909676D01*
X148965524Y-82909676D02*
X149060762Y-82814438D01*
X149060762Y-82814438D02*
X149203619Y-82766819D01*
X149203619Y-82766819D02*
X149298857Y-82766819D01*
X149298857Y-82766819D02*
X149441714Y-82814438D01*
X149441714Y-82814438D02*
X149489333Y-82862057D01*
X150441714Y-83766819D02*
X149870286Y-83766819D01*
X150156000Y-83766819D02*
X150156000Y-82766819D01*
X150156000Y-82766819D02*
X150060762Y-82909676D01*
X150060762Y-82909676D02*
X149965524Y-83004914D01*
X149965524Y-83004914D02*
X149870286Y-83052533D01*
X133768580Y-96803666D02*
X133816200Y-96851285D01*
X133816200Y-96851285D02*
X133863819Y-96994142D01*
X133863819Y-96994142D02*
X133863819Y-97089380D01*
X133863819Y-97089380D02*
X133816200Y-97232237D01*
X133816200Y-97232237D02*
X133720961Y-97327475D01*
X133720961Y-97327475D02*
X133625723Y-97375094D01*
X133625723Y-97375094D02*
X133435247Y-97422713D01*
X133435247Y-97422713D02*
X133292390Y-97422713D01*
X133292390Y-97422713D02*
X133101914Y-97375094D01*
X133101914Y-97375094D02*
X133006676Y-97327475D01*
X133006676Y-97327475D02*
X132911438Y-97232237D01*
X132911438Y-97232237D02*
X132863819Y-97089380D01*
X132863819Y-97089380D02*
X132863819Y-96994142D01*
X132863819Y-96994142D02*
X132911438Y-96851285D01*
X132911438Y-96851285D02*
X132959057Y-96803666D01*
X133197152Y-95946523D02*
X133863819Y-95946523D01*
X132816200Y-96184618D02*
X133530485Y-96422713D01*
X133530485Y-96422713D02*
X133530485Y-95803666D01*
X149526666Y-113189819D02*
X149526666Y-113904104D01*
X149526666Y-113904104D02*
X149479047Y-114046961D01*
X149479047Y-114046961D02*
X149383809Y-114142200D01*
X149383809Y-114142200D02*
X149240952Y-114189819D01*
X149240952Y-114189819D02*
X149145714Y-114189819D01*
X150526666Y-114189819D02*
X149955238Y-114189819D01*
X150240952Y-114189819D02*
X150240952Y-113189819D01*
X150240952Y-113189819D02*
X150145714Y-113332676D01*
X150145714Y-113332676D02*
X150050476Y-113427914D01*
X150050476Y-113427914D02*
X149955238Y-113475533D01*
X164538819Y-103798666D02*
X164062628Y-104131999D01*
X164538819Y-104370094D02*
X163538819Y-104370094D01*
X163538819Y-104370094D02*
X163538819Y-103989142D01*
X163538819Y-103989142D02*
X163586438Y-103893904D01*
X163586438Y-103893904D02*
X163634057Y-103846285D01*
X163634057Y-103846285D02*
X163729295Y-103798666D01*
X163729295Y-103798666D02*
X163872152Y-103798666D01*
X163872152Y-103798666D02*
X163967390Y-103846285D01*
X163967390Y-103846285D02*
X164015009Y-103893904D01*
X164015009Y-103893904D02*
X164062628Y-103989142D01*
X164062628Y-103989142D02*
X164062628Y-104370094D01*
X163538819Y-103465332D02*
X163538819Y-102798666D01*
X163538819Y-102798666D02*
X164538819Y-103227237D01*
X139406333Y-87735580D02*
X139358714Y-87783200D01*
X139358714Y-87783200D02*
X139215857Y-87830819D01*
X139215857Y-87830819D02*
X139120619Y-87830819D01*
X139120619Y-87830819D02*
X138977762Y-87783200D01*
X138977762Y-87783200D02*
X138882524Y-87687961D01*
X138882524Y-87687961D02*
X138834905Y-87592723D01*
X138834905Y-87592723D02*
X138787286Y-87402247D01*
X138787286Y-87402247D02*
X138787286Y-87259390D01*
X138787286Y-87259390D02*
X138834905Y-87068914D01*
X138834905Y-87068914D02*
X138882524Y-86973676D01*
X138882524Y-86973676D02*
X138977762Y-86878438D01*
X138977762Y-86878438D02*
X139120619Y-86830819D01*
X139120619Y-86830819D02*
X139215857Y-86830819D01*
X139215857Y-86830819D02*
X139358714Y-86878438D01*
X139358714Y-86878438D02*
X139406333Y-86926057D01*
X139882524Y-87830819D02*
X140073000Y-87830819D01*
X140073000Y-87830819D02*
X140168238Y-87783200D01*
X140168238Y-87783200D02*
X140215857Y-87735580D01*
X140215857Y-87735580D02*
X140311095Y-87592723D01*
X140311095Y-87592723D02*
X140358714Y-87402247D01*
X140358714Y-87402247D02*
X140358714Y-87021295D01*
X140358714Y-87021295D02*
X140311095Y-86926057D01*
X140311095Y-86926057D02*
X140263476Y-86878438D01*
X140263476Y-86878438D02*
X140168238Y-86830819D01*
X140168238Y-86830819D02*
X139977762Y-86830819D01*
X139977762Y-86830819D02*
X139882524Y-86878438D01*
X139882524Y-86878438D02*
X139834905Y-86926057D01*
X139834905Y-86926057D02*
X139787286Y-87021295D01*
X139787286Y-87021295D02*
X139787286Y-87259390D01*
X139787286Y-87259390D02*
X139834905Y-87354628D01*
X139834905Y-87354628D02*
X139882524Y-87402247D01*
X139882524Y-87402247D02*
X139977762Y-87449866D01*
X139977762Y-87449866D02*
X140168238Y-87449866D01*
X140168238Y-87449866D02*
X140263476Y-87402247D01*
X140263476Y-87402247D02*
X140311095Y-87354628D01*
X140311095Y-87354628D02*
X140358714Y-87259390D01*
X149489333Y-87735580D02*
X149441714Y-87783200D01*
X149441714Y-87783200D02*
X149298857Y-87830819D01*
X149298857Y-87830819D02*
X149203619Y-87830819D01*
X149203619Y-87830819D02*
X149060762Y-87783200D01*
X149060762Y-87783200D02*
X148965524Y-87687961D01*
X148965524Y-87687961D02*
X148917905Y-87592723D01*
X148917905Y-87592723D02*
X148870286Y-87402247D01*
X148870286Y-87402247D02*
X148870286Y-87259390D01*
X148870286Y-87259390D02*
X148917905Y-87068914D01*
X148917905Y-87068914D02*
X148965524Y-86973676D01*
X148965524Y-86973676D02*
X149060762Y-86878438D01*
X149060762Y-86878438D02*
X149203619Y-86830819D01*
X149203619Y-86830819D02*
X149298857Y-86830819D01*
X149298857Y-86830819D02*
X149441714Y-86878438D01*
X149441714Y-86878438D02*
X149489333Y-86926057D01*
X150394095Y-86830819D02*
X149917905Y-86830819D01*
X149917905Y-86830819D02*
X149870286Y-87307009D01*
X149870286Y-87307009D02*
X149917905Y-87259390D01*
X149917905Y-87259390D02*
X150013143Y-87211771D01*
X150013143Y-87211771D02*
X150251238Y-87211771D01*
X150251238Y-87211771D02*
X150346476Y-87259390D01*
X150346476Y-87259390D02*
X150394095Y-87307009D01*
X150394095Y-87307009D02*
X150441714Y-87402247D01*
X150441714Y-87402247D02*
X150441714Y-87640342D01*
X150441714Y-87640342D02*
X150394095Y-87735580D01*
X150394095Y-87735580D02*
X150346476Y-87783200D01*
X150346476Y-87783200D02*
X150251238Y-87830819D01*
X150251238Y-87830819D02*
X150013143Y-87830819D01*
X150013143Y-87830819D02*
X149917905Y-87783200D01*
X149917905Y-87783200D02*
X149870286Y-87735580D01*
X154886819Y-97702666D02*
X154410628Y-98035999D01*
X154886819Y-98274094D02*
X153886819Y-98274094D01*
X153886819Y-98274094D02*
X153886819Y-97893142D01*
X153886819Y-97893142D02*
X153934438Y-97797904D01*
X153934438Y-97797904D02*
X153982057Y-97750285D01*
X153982057Y-97750285D02*
X154077295Y-97702666D01*
X154077295Y-97702666D02*
X154220152Y-97702666D01*
X154220152Y-97702666D02*
X154315390Y-97750285D01*
X154315390Y-97750285D02*
X154363009Y-97797904D01*
X154363009Y-97797904D02*
X154410628Y-97893142D01*
X154410628Y-97893142D02*
X154410628Y-98274094D01*
X154220152Y-96845523D02*
X154886819Y-96845523D01*
X153839200Y-97083618D02*
X154553485Y-97321713D01*
X154553485Y-97321713D02*
X154553485Y-96702666D01*
X140059580Y-106338666D02*
X140107200Y-106386285D01*
X140107200Y-106386285D02*
X140154819Y-106529142D01*
X140154819Y-106529142D02*
X140154819Y-106624380D01*
X140154819Y-106624380D02*
X140107200Y-106767237D01*
X140107200Y-106767237D02*
X140011961Y-106862475D01*
X140011961Y-106862475D02*
X139916723Y-106910094D01*
X139916723Y-106910094D02*
X139726247Y-106957713D01*
X139726247Y-106957713D02*
X139583390Y-106957713D01*
X139583390Y-106957713D02*
X139392914Y-106910094D01*
X139392914Y-106910094D02*
X139297676Y-106862475D01*
X139297676Y-106862475D02*
X139202438Y-106767237D01*
X139202438Y-106767237D02*
X139154819Y-106624380D01*
X139154819Y-106624380D02*
X139154819Y-106529142D01*
X139154819Y-106529142D02*
X139202438Y-106386285D01*
X139202438Y-106386285D02*
X139250057Y-106338666D01*
X139154819Y-106005332D02*
X139154819Y-105386285D01*
X139154819Y-105386285D02*
X139535771Y-105719618D01*
X139535771Y-105719618D02*
X139535771Y-105576761D01*
X139535771Y-105576761D02*
X139583390Y-105481523D01*
X139583390Y-105481523D02*
X139631009Y-105433904D01*
X139631009Y-105433904D02*
X139726247Y-105386285D01*
X139726247Y-105386285D02*
X139964342Y-105386285D01*
X139964342Y-105386285D02*
X140059580Y-105433904D01*
X140059580Y-105433904D02*
X140107200Y-105481523D01*
X140107200Y-105481523D02*
X140154819Y-105576761D01*
X140154819Y-105576761D02*
X140154819Y-105862475D01*
X140154819Y-105862475D02*
X140107200Y-105957713D01*
X140107200Y-105957713D02*
X140059580Y-106005332D01*
X149489333Y-85798819D02*
X149156000Y-85322628D01*
X148917905Y-85798819D02*
X148917905Y-84798819D01*
X148917905Y-84798819D02*
X149298857Y-84798819D01*
X149298857Y-84798819D02*
X149394095Y-84846438D01*
X149394095Y-84846438D02*
X149441714Y-84894057D01*
X149441714Y-84894057D02*
X149489333Y-84989295D01*
X149489333Y-84989295D02*
X149489333Y-85132152D01*
X149489333Y-85132152D02*
X149441714Y-85227390D01*
X149441714Y-85227390D02*
X149394095Y-85275009D01*
X149394095Y-85275009D02*
X149298857Y-85322628D01*
X149298857Y-85322628D02*
X148917905Y-85322628D01*
X149822667Y-84798819D02*
X150441714Y-84798819D01*
X150441714Y-84798819D02*
X150108381Y-85179771D01*
X150108381Y-85179771D02*
X150251238Y-85179771D01*
X150251238Y-85179771D02*
X150346476Y-85227390D01*
X150346476Y-85227390D02*
X150394095Y-85275009D01*
X150394095Y-85275009D02*
X150441714Y-85370247D01*
X150441714Y-85370247D02*
X150441714Y-85608342D01*
X150441714Y-85608342D02*
X150394095Y-85703580D01*
X150394095Y-85703580D02*
X150346476Y-85751200D01*
X150346476Y-85751200D02*
X150251238Y-85798819D01*
X150251238Y-85798819D02*
X149965524Y-85798819D01*
X149965524Y-85798819D02*
X149870286Y-85751200D01*
X149870286Y-85751200D02*
X149822667Y-85703580D01*
X142494095Y-106134819D02*
X142494095Y-106944342D01*
X142494095Y-106944342D02*
X142541714Y-107039580D01*
X142541714Y-107039580D02*
X142589333Y-107087200D01*
X142589333Y-107087200D02*
X142684571Y-107134819D01*
X142684571Y-107134819D02*
X142875047Y-107134819D01*
X142875047Y-107134819D02*
X142970285Y-107087200D01*
X142970285Y-107087200D02*
X143017904Y-107039580D01*
X143017904Y-107039580D02*
X143065523Y-106944342D01*
X143065523Y-106944342D02*
X143065523Y-106134819D01*
X144065523Y-107134819D02*
X143494095Y-107134819D01*
X143779809Y-107134819D02*
X143779809Y-106134819D01*
X143779809Y-106134819D02*
X143684571Y-106277676D01*
X143684571Y-106277676D02*
X143589333Y-106372914D01*
X143589333Y-106372914D02*
X143494095Y-106420533D01*
X160940761Y-104830057D02*
X160845523Y-104782438D01*
X160845523Y-104782438D02*
X160750285Y-104687200D01*
X160750285Y-104687200D02*
X160607428Y-104544342D01*
X160607428Y-104544342D02*
X160512190Y-104496723D01*
X160512190Y-104496723D02*
X160416952Y-104496723D01*
X160464571Y-104734819D02*
X160369333Y-104687200D01*
X160369333Y-104687200D02*
X160274095Y-104591961D01*
X160274095Y-104591961D02*
X160226476Y-104401485D01*
X160226476Y-104401485D02*
X160226476Y-104068152D01*
X160226476Y-104068152D02*
X160274095Y-103877676D01*
X160274095Y-103877676D02*
X160369333Y-103782438D01*
X160369333Y-103782438D02*
X160464571Y-103734819D01*
X160464571Y-103734819D02*
X160655047Y-103734819D01*
X160655047Y-103734819D02*
X160750285Y-103782438D01*
X160750285Y-103782438D02*
X160845523Y-103877676D01*
X160845523Y-103877676D02*
X160893142Y-104068152D01*
X160893142Y-104068152D02*
X160893142Y-104401485D01*
X160893142Y-104401485D02*
X160845523Y-104591961D01*
X160845523Y-104591961D02*
X160750285Y-104687200D01*
X160750285Y-104687200D02*
X160655047Y-104734819D01*
X160655047Y-104734819D02*
X160464571Y-104734819D01*
X161845523Y-104734819D02*
X161274095Y-104734819D01*
X161559809Y-104734819D02*
X161559809Y-103734819D01*
X161559809Y-103734819D02*
X161464571Y-103877676D01*
X161464571Y-103877676D02*
X161369333Y-103972914D01*
X161369333Y-103972914D02*
X161274095Y-104020533D01*
X158361142Y-82655580D02*
X158313523Y-82703200D01*
X158313523Y-82703200D02*
X158170666Y-82750819D01*
X158170666Y-82750819D02*
X158075428Y-82750819D01*
X158075428Y-82750819D02*
X157932571Y-82703200D01*
X157932571Y-82703200D02*
X157837333Y-82607961D01*
X157837333Y-82607961D02*
X157789714Y-82512723D01*
X157789714Y-82512723D02*
X157742095Y-82322247D01*
X157742095Y-82322247D02*
X157742095Y-82179390D01*
X157742095Y-82179390D02*
X157789714Y-81988914D01*
X157789714Y-81988914D02*
X157837333Y-81893676D01*
X157837333Y-81893676D02*
X157932571Y-81798438D01*
X157932571Y-81798438D02*
X158075428Y-81750819D01*
X158075428Y-81750819D02*
X158170666Y-81750819D01*
X158170666Y-81750819D02*
X158313523Y-81798438D01*
X158313523Y-81798438D02*
X158361142Y-81846057D01*
X159313523Y-82750819D02*
X158742095Y-82750819D01*
X159027809Y-82750819D02*
X159027809Y-81750819D01*
X159027809Y-81750819D02*
X158932571Y-81893676D01*
X158932571Y-81893676D02*
X158837333Y-81988914D01*
X158837333Y-81988914D02*
X158742095Y-82036533D01*
X159694476Y-81846057D02*
X159742095Y-81798438D01*
X159742095Y-81798438D02*
X159837333Y-81750819D01*
X159837333Y-81750819D02*
X160075428Y-81750819D01*
X160075428Y-81750819D02*
X160170666Y-81798438D01*
X160170666Y-81798438D02*
X160218285Y-81846057D01*
X160218285Y-81846057D02*
X160265904Y-81941295D01*
X160265904Y-81941295D02*
X160265904Y-82036533D01*
X160265904Y-82036533D02*
X160218285Y-82179390D01*
X160218285Y-82179390D02*
X159646857Y-82750819D01*
X159646857Y-82750819D02*
X160265904Y-82750819D01*
X138535009Y-102385714D02*
X138582628Y-102242857D01*
X138582628Y-102242857D02*
X138630247Y-102195238D01*
X138630247Y-102195238D02*
X138725485Y-102147619D01*
X138725485Y-102147619D02*
X138868342Y-102147619D01*
X138868342Y-102147619D02*
X138963580Y-102195238D01*
X138963580Y-102195238D02*
X139011200Y-102242857D01*
X139011200Y-102242857D02*
X139058819Y-102338095D01*
X139058819Y-102338095D02*
X139058819Y-102719047D01*
X139058819Y-102719047D02*
X138058819Y-102719047D01*
X138058819Y-102719047D02*
X138058819Y-102385714D01*
X138058819Y-102385714D02*
X138106438Y-102290476D01*
X138106438Y-102290476D02*
X138154057Y-102242857D01*
X138154057Y-102242857D02*
X138249295Y-102195238D01*
X138249295Y-102195238D02*
X138344533Y-102195238D01*
X138344533Y-102195238D02*
X138439771Y-102242857D01*
X138439771Y-102242857D02*
X138487390Y-102290476D01*
X138487390Y-102290476D02*
X138535009Y-102385714D01*
X138535009Y-102385714D02*
X138535009Y-102719047D01*
X138058819Y-101861904D02*
X138058819Y-101290476D01*
X139058819Y-101576190D02*
X138058819Y-101576190D01*
X139058819Y-100433333D02*
X139058819Y-101004761D01*
X139058819Y-100719047D02*
X138058819Y-100719047D01*
X138058819Y-100719047D02*
X138201676Y-100814285D01*
X138201676Y-100814285D02*
X138296914Y-100909523D01*
X138296914Y-100909523D02*
X138344533Y-101004761D01*
X151743580Y-98740166D02*
X151791200Y-98787785D01*
X151791200Y-98787785D02*
X151838819Y-98930642D01*
X151838819Y-98930642D02*
X151838819Y-99025880D01*
X151838819Y-99025880D02*
X151791200Y-99168737D01*
X151791200Y-99168737D02*
X151695961Y-99263975D01*
X151695961Y-99263975D02*
X151600723Y-99311594D01*
X151600723Y-99311594D02*
X151410247Y-99359213D01*
X151410247Y-99359213D02*
X151267390Y-99359213D01*
X151267390Y-99359213D02*
X151076914Y-99311594D01*
X151076914Y-99311594D02*
X150981676Y-99263975D01*
X150981676Y-99263975D02*
X150886438Y-99168737D01*
X150886438Y-99168737D02*
X150838819Y-99025880D01*
X150838819Y-99025880D02*
X150838819Y-98930642D01*
X150838819Y-98930642D02*
X150886438Y-98787785D01*
X150886438Y-98787785D02*
X150934057Y-98740166D01*
X150838819Y-97883023D02*
X150838819Y-98073499D01*
X150838819Y-98073499D02*
X150886438Y-98168737D01*
X150886438Y-98168737D02*
X150934057Y-98216356D01*
X150934057Y-98216356D02*
X151076914Y-98311594D01*
X151076914Y-98311594D02*
X151267390Y-98359213D01*
X151267390Y-98359213D02*
X151648342Y-98359213D01*
X151648342Y-98359213D02*
X151743580Y-98311594D01*
X151743580Y-98311594D02*
X151791200Y-98263975D01*
X151791200Y-98263975D02*
X151838819Y-98168737D01*
X151838819Y-98168737D02*
X151838819Y-97978261D01*
X151838819Y-97978261D02*
X151791200Y-97883023D01*
X151791200Y-97883023D02*
X151743580Y-97835404D01*
X151743580Y-97835404D02*
X151648342Y-97787785D01*
X151648342Y-97787785D02*
X151410247Y-97787785D01*
X151410247Y-97787785D02*
X151315009Y-97835404D01*
X151315009Y-97835404D02*
X151267390Y-97883023D01*
X151267390Y-97883023D02*
X151219771Y-97978261D01*
X151219771Y-97978261D02*
X151219771Y-98168737D01*
X151219771Y-98168737D02*
X151267390Y-98263975D01*
X151267390Y-98263975D02*
X151315009Y-98311594D01*
X151315009Y-98311594D02*
X151410247Y-98359213D01*
D12*
%TO.C,C10*%
X136898748Y-120677000D02*
X137421252Y-120677000D01*
X136898748Y-122147000D02*
X137421252Y-122147000D01*
%TO.C,C13*%
X156745000Y-85097252D02*
X156745000Y-84574748D01*
X158215000Y-85097252D02*
X158215000Y-84574748D01*
%TO.C,U3*%
X142919000Y-93472000D02*
X142919000Y-91272000D01*
X142919000Y-93472000D02*
X142919000Y-95672000D01*
X149689000Y-93472000D02*
X149689000Y-91272000D01*
X149689000Y-93472000D02*
X149689000Y-95672000D01*
X149229000Y-89612000D02*
X148989000Y-89282000D01*
X149469000Y-89282000D01*
X149229000Y-89612000D01*
G36*
X149229000Y-89612000D02*
G01*
X148989000Y-89282000D01*
X149469000Y-89282000D01*
X149229000Y-89612000D01*
G37*
%TO.C,C8*%
X162298748Y-120677000D02*
X162821252Y-120677000D01*
X162298748Y-122147000D02*
X162821252Y-122147000D01*
%TO.C,R6*%
X157253000Y-106452936D02*
X157253000Y-106907064D01*
X158723000Y-106452936D02*
X158723000Y-106907064D01*
%TO.C,U4*%
X135569000Y-96189000D02*
X135569000Y-95689000D01*
X135869000Y-90989000D02*
X136619000Y-90989000D01*
X136069000Y-96189000D02*
X135569000Y-96189000D01*
X138369000Y-90989000D02*
X138869000Y-90989000D01*
X138869000Y-90989000D02*
X138869000Y-91489000D01*
X138869000Y-95689000D02*
X138869000Y-96189000D01*
X138869000Y-96189000D02*
X138369000Y-96189000D01*
X135669000Y-90989000D02*
X135309000Y-90989000D01*
X135669000Y-90629000D01*
X135669000Y-90989000D01*
G36*
X135669000Y-90989000D02*
G01*
X135309000Y-90989000D01*
X135669000Y-90629000D01*
X135669000Y-90989000D01*
G37*
%TO.C,C14*%
X165889000Y-85097252D02*
X165889000Y-84574748D01*
X167359000Y-85097252D02*
X167359000Y-84574748D01*
%TO.C,R5*%
X148617000Y-101372936D02*
X148617000Y-101827064D01*
X150087000Y-101372936D02*
X150087000Y-101827064D01*
%TO.C,R1*%
X153189000Y-106907064D02*
X153189000Y-106452936D01*
X154659000Y-106907064D02*
X154659000Y-106452936D01*
%TO.C,R2*%
X155221000Y-106907064D02*
X155221000Y-106452936D01*
X156691000Y-106907064D02*
X156691000Y-106452936D01*
%TO.C,C11*%
X165889000Y-89161252D02*
X165889000Y-88638748D01*
X167359000Y-89161252D02*
X167359000Y-88638748D01*
%TO.C,D2*%
X165572000Y-106680000D02*
X165572000Y-106030000D01*
X165572000Y-106680000D02*
X165572000Y-107330000D01*
X168692000Y-106680000D02*
X168692000Y-106030000D01*
X168692000Y-106680000D02*
X168692000Y-107330000D01*
X165622000Y-107842500D02*
X165292000Y-108082500D01*
X165292000Y-107602500D01*
X165622000Y-107842500D01*
G36*
X165622000Y-107842500D02*
G01*
X165292000Y-108082500D01*
X165292000Y-107602500D01*
X165622000Y-107842500D01*
G37*
%TO.C,U6*%
X159394000Y-84718000D02*
X159394000Y-85243000D01*
X159394000Y-84718000D02*
X159919000Y-84718000D01*
X159394000Y-88493000D02*
X159394000Y-88718000D01*
X159859000Y-89018000D02*
X159634000Y-89018000D01*
X163694000Y-84718000D02*
X163169000Y-84718000D01*
X163694000Y-84718000D02*
X163694000Y-85243000D01*
X163694000Y-89018000D02*
X163169000Y-89018000D01*
X163694000Y-89018000D02*
X163694000Y-88493000D01*
X159394000Y-89018000D02*
X159064000Y-89258000D01*
X159064000Y-88778000D01*
X159394000Y-89018000D01*
G36*
X159394000Y-89018000D02*
G01*
X159064000Y-89258000D01*
X159064000Y-88778000D01*
X159394000Y-89018000D01*
G37*
%TO.C,D1*%
X136144000Y-107660000D02*
X135494000Y-107660000D01*
X136144000Y-107660000D02*
X136794000Y-107660000D01*
X136144000Y-110780000D02*
X135494000Y-110780000D01*
X136144000Y-110780000D02*
X136794000Y-110780000D01*
X134981500Y-107710000D02*
X134741500Y-107380000D01*
X135221500Y-107380000D01*
X134981500Y-107710000D01*
G36*
X134981500Y-107710000D02*
G01*
X134741500Y-107380000D01*
X135221500Y-107380000D01*
X134981500Y-107710000D01*
G37*
%TO.C,C2*%
X146077000Y-108958748D02*
X146077000Y-109481252D01*
X147547000Y-108958748D02*
X147547000Y-109481252D01*
%TO.C,C7*%
X139473000Y-101338748D02*
X139473000Y-101861252D01*
X140943000Y-101338748D02*
X140943000Y-101861252D01*
%TO.C,U5*%
X144780000Y-100040000D02*
X143980000Y-100040000D01*
X144780000Y-100040000D02*
X145580000Y-100040000D01*
X144780000Y-103160000D02*
X143980000Y-103160000D01*
X144780000Y-103160000D02*
X145580000Y-103160000D01*
X143480000Y-100090000D02*
X143240000Y-99760000D01*
X143720000Y-99760000D01*
X143480000Y-100090000D01*
G36*
X143480000Y-100090000D02*
G01*
X143240000Y-99760000D01*
X143720000Y-99760000D01*
X143480000Y-100090000D01*
G37*
%TO.C,J2*%
X158242000Y-92710000D02*
X159512000Y-92710000D01*
X158242000Y-93980000D02*
X158242000Y-92710000D01*
X160589358Y-96090000D02*
X160902000Y-96090000D01*
X160589358Y-96950000D02*
X160902000Y-96950000D01*
X160589358Y-98630000D02*
X160902000Y-98630000D01*
X160589358Y-99490000D02*
X160902000Y-99490000D01*
X160589358Y-101170000D02*
X160902000Y-101170000D01*
X160589358Y-102030000D02*
X160902000Y-102030000D01*
X160672000Y-93550000D02*
X160902000Y-93550000D01*
X160672000Y-94410000D02*
X160902000Y-94410000D01*
X160902000Y-92600000D02*
X160902000Y-102980000D01*
X160902000Y-95250000D02*
X163662000Y-95250000D01*
X160902000Y-97790000D02*
X163662000Y-97790000D01*
X160902000Y-100330000D02*
X163662000Y-100330000D01*
X160902000Y-102980000D02*
X163662000Y-102980000D01*
X163662000Y-92600000D02*
X160902000Y-92600000D01*
X163662000Y-96090000D02*
X169662000Y-96090000D01*
X163662000Y-98630000D02*
X169662000Y-98630000D01*
X163662000Y-101170000D02*
X169662000Y-101170000D01*
X163662000Y-102980000D02*
X163662000Y-92600000D01*
X169662000Y-96090000D02*
X169662000Y-96950000D01*
X169662000Y-96950000D02*
X163662000Y-96950000D01*
X169662000Y-98630000D02*
X169662000Y-99490000D01*
X169662000Y-99490000D02*
X163662000Y-99490000D01*
X169662000Y-101170000D02*
X169662000Y-102030000D01*
X169662000Y-102030000D02*
X163662000Y-102030000D01*
X163662000Y-93550000D02*
X169662000Y-93550000D01*
X169662000Y-94410000D01*
X163662000Y-94410000D01*
X163662000Y-93550000D01*
G36*
X163662000Y-93550000D02*
G01*
X169662000Y-93550000D01*
X169662000Y-94410000D01*
X163662000Y-94410000D01*
X163662000Y-93550000D01*
G37*
D13*
%TO.C,BUZ1*%
X163008000Y-111468000D02*
X163008000Y-110868000D01*
X163308000Y-111168000D02*
X162708000Y-111168000D01*
D14*
X163508000Y-110168000D02*
X163508000Y-111468000D01*
X163508000Y-113068000D02*
X162708000Y-113068000D01*
X163508000Y-114318000D02*
X163508000Y-113068000D01*
X167708000Y-110168000D02*
X163508000Y-110168000D01*
X167708000Y-111468000D02*
X167708000Y-110168000D01*
X167708000Y-113018000D02*
X167708000Y-114318000D01*
X167708000Y-114318000D02*
X163508000Y-114318000D01*
D15*
X163308000Y-111168000D02*
G75*
G02*
X162708000Y-111168000I-300000J0D01*
G01*
X162708000Y-111168000D02*
G75*
G02*
X163308000Y-111168000I300000J0D01*
G01*
D14*
X166008000Y-112268000D02*
G75*
G02*
X165208000Y-112268000I-400000J0D01*
G01*
X165208000Y-112268000D02*
G75*
G02*
X166008000Y-112268000I400000J0D01*
G01*
D12*
%TO.C,C1*%
X146869252Y-82577000D02*
X146346748Y-82577000D01*
X146869252Y-84047000D02*
X146346748Y-84047000D01*
%TO.C,C4*%
X132674000Y-93327748D02*
X132674000Y-93850252D01*
X134144000Y-93327748D02*
X134144000Y-93850252D01*
D16*
%TO.C,LOGO1*%
G36*
X134546074Y-82943320D02*
G01*
X134522380Y-82967014D01*
X134498686Y-82943320D01*
X134522380Y-82919626D01*
X134546074Y-82943320D01*
G37*
G36*
X135359553Y-81685134D02*
G01*
X135381412Y-81694866D01*
X135522789Y-81801154D01*
X135643125Y-81957431D01*
X135717916Y-82127157D01*
X135730776Y-82215813D01*
X135709622Y-82321515D01*
X135660641Y-82348663D01*
X135605550Y-82299499D01*
X135570112Y-82199237D01*
X135497255Y-82016721D01*
X135372859Y-81887983D01*
X135216288Y-81831766D01*
X135189400Y-81830755D01*
X135025942Y-81864219D01*
X134889796Y-81968399D01*
X134770800Y-82152890D01*
X134713945Y-82279759D01*
X134630330Y-82464778D01*
X134563706Y-82562594D01*
X134509570Y-82578311D01*
X134478694Y-82546512D01*
X134475595Y-82467800D01*
X134512029Y-82335665D01*
X134576537Y-82176576D01*
X134657659Y-82016998D01*
X134743936Y-81883398D01*
X134788119Y-81831887D01*
X134968792Y-81704695D01*
X135167455Y-81653888D01*
X135359553Y-81685134D01*
G37*
G36*
X136947354Y-81680102D02*
G01*
X137054074Y-81724233D01*
X137169152Y-81815211D01*
X137280070Y-81949531D01*
X137377496Y-82107321D01*
X137452097Y-82268707D01*
X137494542Y-82413817D01*
X137495497Y-82522778D01*
X137452935Y-82573594D01*
X137388537Y-82566783D01*
X137378398Y-82554870D01*
X137353233Y-82489679D01*
X137312727Y-82369732D01*
X137293802Y-82310622D01*
X137222176Y-82146359D01*
X137125516Y-81996179D01*
X137100540Y-81967059D01*
X136944611Y-81856327D01*
X136778798Y-81829190D01*
X136622494Y-81879102D01*
X136495090Y-81999516D01*
X136415979Y-82183888D01*
X136412708Y-82199237D01*
X136370325Y-82308161D01*
X136314656Y-82348970D01*
X136267987Y-82317376D01*
X136252044Y-82230146D01*
X136292419Y-82018027D01*
X136400982Y-81845076D01*
X136558888Y-81723180D01*
X136747293Y-81664227D01*
X136947354Y-81680102D01*
G37*
G36*
X136405157Y-79968195D02*
G01*
X136896254Y-80068285D01*
X137362738Y-80248761D01*
X137791840Y-80508948D01*
X137865236Y-80565076D01*
X138156669Y-80848763D01*
X138412853Y-81201632D01*
X138621312Y-81600865D01*
X138769571Y-82023647D01*
X138832696Y-82334596D01*
X138863946Y-82492415D01*
X138909002Y-82576176D01*
X138956988Y-82602641D01*
X139033299Y-82666078D01*
X139048239Y-82737485D01*
X139094849Y-82854275D01*
X139190404Y-82929269D01*
X139332268Y-83009994D01*
X139332268Y-83600577D01*
X139332268Y-84191160D01*
X139192226Y-84253149D01*
X139071603Y-84345349D01*
X139038215Y-84434826D01*
X139020105Y-84506773D01*
X138970505Y-84544997D01*
X138863832Y-84563055D01*
X138786011Y-84568472D01*
X138547776Y-84582429D01*
X138369489Y-85184517D01*
X138192694Y-85717557D01*
X138000857Y-86176077D01*
X137796948Y-86554070D01*
X137583939Y-86845535D01*
X137507591Y-86926185D01*
X137380015Y-87059731D01*
X137279999Y-87181021D01*
X137228148Y-87264942D01*
X137227055Y-87268126D01*
X137153962Y-87389162D01*
X137023156Y-87520768D01*
X136864934Y-87638354D01*
X136709596Y-87717330D01*
X136654669Y-87732674D01*
X136380051Y-87750752D01*
X136146370Y-87698283D01*
X135967740Y-87578634D01*
X135955869Y-87565835D01*
X135848194Y-87388697D01*
X135834129Y-87205466D01*
X135880167Y-87076271D01*
X135884577Y-87042060D01*
X135825514Y-87075897D01*
X135716688Y-87166196D01*
X135596506Y-87265538D01*
X135477672Y-87345172D01*
X135347678Y-87407667D01*
X135194015Y-87455593D01*
X135004175Y-87491518D01*
X134765649Y-87518011D01*
X134465928Y-87537641D01*
X134092504Y-87552977D01*
X133787865Y-87562327D01*
X133383225Y-87575112D01*
X133062035Y-87588614D01*
X132812970Y-87603723D01*
X132624706Y-87621331D01*
X132485916Y-87642327D01*
X132385276Y-87667604D01*
X132366223Y-87674157D01*
X132184133Y-87732678D01*
X132063415Y-87748544D01*
X131981424Y-87722959D01*
X131949208Y-87696343D01*
X131896112Y-87600840D01*
X131932950Y-87501452D01*
X131982638Y-87449242D01*
X132067934Y-87385132D01*
X132174930Y-87333019D01*
X132314506Y-87291265D01*
X132497541Y-87258230D01*
X132734913Y-87232278D01*
X133037500Y-87211769D01*
X133416183Y-87195065D01*
X133740477Y-87184521D01*
X134165785Y-87170358D01*
X134507934Y-87154139D01*
X134778543Y-87133921D01*
X134989231Y-87107758D01*
X135151614Y-87073707D01*
X135277311Y-87029824D01*
X135377940Y-86974163D01*
X135465119Y-86904782D01*
X135476829Y-86893941D01*
X135553352Y-86801603D01*
X135623305Y-86685413D01*
X135671014Y-86576406D01*
X135680805Y-86505617D01*
X135676554Y-86498489D01*
X135623358Y-86482050D01*
X135501921Y-86457289D01*
X135337813Y-86429384D01*
X135326612Y-86427636D01*
X135105345Y-86386949D01*
X134873149Y-86333743D01*
X134651397Y-86274154D01*
X134461460Y-86214319D01*
X134324712Y-86160375D01*
X134265616Y-86122984D01*
X134248540Y-86064850D01*
X134220345Y-85924318D01*
X134182945Y-85712866D01*
X134138255Y-85441970D01*
X134088189Y-85123108D01*
X134034660Y-84767759D01*
X134000048Y-84530512D01*
X133947390Y-84151716D01*
X134135878Y-84151716D01*
X134266190Y-85057862D01*
X134308598Y-85341077D01*
X134349367Y-85592047D01*
X134385781Y-85795657D01*
X134415124Y-85936792D01*
X134434682Y-86000338D01*
X134435746Y-86001621D01*
X134512320Y-86042581D01*
X134648866Y-86091053D01*
X134812124Y-86137502D01*
X134968835Y-86172393D01*
X135079190Y-86186102D01*
X135209507Y-86189403D01*
X135209507Y-85170559D01*
X135209507Y-84151716D01*
X135351671Y-84151716D01*
X135351671Y-85190779D01*
X135352220Y-85531848D01*
X135354480Y-85789939D01*
X135359372Y-85976846D01*
X135367820Y-86104362D01*
X135380742Y-86184282D01*
X135399063Y-86228400D01*
X135423701Y-86248510D01*
X135434600Y-86252226D01*
X135513520Y-86260586D01*
X135664503Y-86266226D01*
X135864862Y-86268593D01*
X136062492Y-86267548D01*
X136607455Y-86260485D01*
X136620208Y-85206100D01*
X136620313Y-85197447D01*
X136820701Y-85197447D01*
X136821155Y-85538234D01*
X136823127Y-85795502D01*
X136827528Y-85980504D01*
X136835272Y-86104494D01*
X136847271Y-86178727D01*
X136864439Y-86214457D01*
X136887687Y-86222938D01*
X136903630Y-86220000D01*
X136992999Y-86195025D01*
X137137624Y-86154612D01*
X137260907Y-86120164D01*
X137443544Y-86056506D01*
X137547337Y-85986525D01*
X137577964Y-85938749D01*
X137598911Y-85856661D01*
X137628418Y-85699631D01*
X137663271Y-85486760D01*
X137700256Y-85237148D01*
X137719221Y-85099477D01*
X137754853Y-84838234D01*
X137787935Y-84603610D01*
X137815686Y-84414745D01*
X137835327Y-84290775D01*
X137841407Y-84258339D01*
X137848487Y-84211826D01*
X137834583Y-84181294D01*
X137783970Y-84163379D01*
X137680924Y-84154719D01*
X137509720Y-84151950D01*
X137342873Y-84151716D01*
X136820701Y-84151716D01*
X136820701Y-85197447D01*
X136620313Y-85197447D01*
X136632962Y-84151716D01*
X136489891Y-84151716D01*
X136346820Y-84151716D01*
X136346820Y-84610695D01*
X136344494Y-84829357D01*
X136334822Y-84975579D01*
X136313770Y-85071642D01*
X136277299Y-85139826D01*
X136243784Y-85179352D01*
X136135168Y-85258097D01*
X136027422Y-85289029D01*
X135873367Y-85263287D01*
X135761647Y-85180265D01*
X135687818Y-85031276D01*
X135647435Y-84807630D01*
X135636000Y-84523749D01*
X135636000Y-84419473D01*
X135825552Y-84419473D01*
X135826948Y-84678581D01*
X135832435Y-84858760D01*
X135843955Y-84975834D01*
X135863453Y-85045625D01*
X135892873Y-85083958D01*
X135908481Y-85094384D01*
X136015379Y-85111969D01*
X136086186Y-85079212D01*
X136126696Y-85043748D01*
X136154600Y-84988500D01*
X136172840Y-84896116D01*
X136184358Y-84749251D01*
X136192095Y-84530553D01*
X136194271Y-84441828D01*
X136196254Y-84145432D01*
X136184737Y-83932065D01*
X136157228Y-83790624D01*
X136111236Y-83710003D01*
X136044271Y-83679098D01*
X136022914Y-83677835D01*
X135947615Y-83688180D01*
X135893983Y-83728052D01*
X135858490Y-83810708D01*
X135837609Y-83949407D01*
X135827811Y-84157405D01*
X135825552Y-84419473D01*
X135636000Y-84419473D01*
X135636000Y-84151716D01*
X135493835Y-84151716D01*
X135351671Y-84151716D01*
X135209507Y-84151716D01*
X134672693Y-84151716D01*
X134135878Y-84151716D01*
X133947390Y-84151716D01*
X133922057Y-83969482D01*
X133863098Y-83491384D01*
X133823817Y-83086171D01*
X133804970Y-82745718D01*
X133983644Y-82745718D01*
X133994147Y-83006557D01*
X134014881Y-83283385D01*
X134043272Y-83546385D01*
X134076746Y-83765739D01*
X134102357Y-83879235D01*
X134119629Y-83910636D01*
X134160007Y-83933011D01*
X134237443Y-83947854D01*
X134365884Y-83956661D01*
X134559281Y-83960928D01*
X134831582Y-83962150D01*
X134875847Y-83962164D01*
X135625725Y-83962164D01*
X135658248Y-83831847D01*
X135738270Y-83654684D01*
X135870011Y-83556877D01*
X135998755Y-83535671D01*
X136164538Y-83573636D01*
X136287754Y-83673810D01*
X136345240Y-83815617D01*
X136346820Y-83844867D01*
X136346820Y-83964511D01*
X137116269Y-83951491D01*
X137885718Y-83938470D01*
X137921942Y-83686447D01*
X137977948Y-83252441D01*
X138008244Y-82893394D01*
X138011927Y-82592792D01*
X137988093Y-82334121D01*
X137935839Y-82100867D01*
X137854259Y-81876517D01*
X137818522Y-81796851D01*
X137610334Y-81458372D01*
X137336821Y-81177613D01*
X137010735Y-80958562D01*
X136644827Y-80805210D01*
X136251846Y-80721547D01*
X135844543Y-80711562D01*
X135435670Y-80779245D01*
X135040209Y-80927485D01*
X134675027Y-81155645D01*
X134383750Y-81442137D01*
X134169364Y-81782420D01*
X134034855Y-82171955D01*
X133985946Y-82530687D01*
X133983644Y-82745718D01*
X133804970Y-82745718D01*
X133804864Y-82743798D01*
X133806886Y-82454220D01*
X133830532Y-82207391D01*
X133876450Y-81993266D01*
X133945289Y-81801800D01*
X134037696Y-81622948D01*
X134154320Y-81446663D01*
X134203306Y-81380647D01*
X134495920Y-81064872D01*
X134841033Y-80821897D01*
X135245059Y-80648130D01*
X135701749Y-80541927D01*
X136118312Y-80522787D01*
X136542564Y-80586954D01*
X136952459Y-80727744D01*
X137325953Y-80938475D01*
X137520892Y-81093429D01*
X137811205Y-81417843D01*
X138022751Y-81792034D01*
X138152283Y-82208518D01*
X138196531Y-82651367D01*
X138190225Y-82781069D01*
X138171609Y-82990355D01*
X138142317Y-83265062D01*
X138103987Y-83591029D01*
X138058254Y-83954096D01*
X138006755Y-84340100D01*
X137975309Y-84565941D01*
X137752510Y-86141173D01*
X137506145Y-86233350D01*
X137294376Y-86300018D01*
X137032912Y-86364200D01*
X136756068Y-86419140D01*
X136498162Y-86458080D01*
X136293509Y-86474260D01*
X136282350Y-86474365D01*
X136165571Y-86479356D01*
X136098296Y-86508865D01*
X136053512Y-86586154D01*
X136013148Y-86706173D01*
X135940109Y-86937347D01*
X136088796Y-86823938D01*
X136293048Y-86714008D01*
X136525733Y-86660379D01*
X136758958Y-86663725D01*
X136964832Y-86724720D01*
X137075639Y-86800095D01*
X137172917Y-86876783D01*
X137252643Y-86888279D01*
X137340659Y-86829911D01*
X137428736Y-86736248D01*
X137581457Y-86539666D01*
X137723235Y-86306154D01*
X137860296Y-86022462D01*
X137998862Y-85675342D01*
X138145158Y-85251544D01*
X138186499Y-85123171D01*
X138226497Y-84990448D01*
X138257278Y-84865399D01*
X138280507Y-84731695D01*
X138297851Y-84573009D01*
X138310974Y-84373014D01*
X138321543Y-84115380D01*
X138331222Y-83783781D01*
X138333940Y-83677835D01*
X138360813Y-82611604D01*
X138516386Y-82596638D01*
X138617280Y-82580798D01*
X138654716Y-82539963D01*
X138648828Y-82443954D01*
X138642828Y-82407086D01*
X138515202Y-81888139D01*
X138316643Y-81430436D01*
X138048860Y-81035987D01*
X137713567Y-80706804D01*
X137312473Y-80444901D01*
X136847290Y-80252288D01*
X136797007Y-80236824D01*
X136527004Y-80181946D01*
X136202846Y-80155072D01*
X135860913Y-80156174D01*
X135537587Y-80185222D01*
X135283066Y-80238004D01*
X134810161Y-80422676D01*
X134390136Y-80677789D01*
X134030535Y-80995890D01*
X133738902Y-81369526D01*
X133522780Y-81791245D01*
X133431759Y-82067000D01*
X133392493Y-82236647D01*
X133367130Y-82388550D01*
X133361935Y-82454590D01*
X133375749Y-82544709D01*
X133437282Y-82584942D01*
X133515384Y-82596755D01*
X133669395Y-82611604D01*
X133669395Y-83583059D01*
X133669395Y-84554514D01*
X133313985Y-84554514D01*
X133131672Y-84552191D01*
X133023532Y-84541551D01*
X132969000Y-84517089D01*
X132947514Y-84473300D01*
X132944438Y-84455577D01*
X132890653Y-84364463D01*
X132772861Y-84281611D01*
X132766733Y-84278638D01*
X132603164Y-84200637D01*
X132603164Y-83589575D01*
X132603164Y-82978513D01*
X132750551Y-82917463D01*
X132884691Y-82821385D01*
X132944739Y-82722161D01*
X132997562Y-82626732D01*
X133057083Y-82587910D01*
X133116062Y-82547629D01*
X133143172Y-82481287D01*
X133200520Y-82197564D01*
X133252239Y-81980617D01*
X133306352Y-81803434D01*
X133370884Y-81639001D01*
X133434648Y-81500057D01*
X133621632Y-81186699D01*
X133872513Y-80875883D01*
X134160351Y-80597190D01*
X134450026Y-80385138D01*
X134911882Y-80156961D01*
X135400202Y-80011860D01*
X135902217Y-79949162D01*
X136405157Y-79968195D01*
G37*
D12*
%TO.C,J1*%
X145160000Y-117480000D02*
X145160000Y-119480000D01*
X145160000Y-121380000D02*
X145160000Y-123280000D01*
X145160000Y-123280000D02*
X154560000Y-123280000D01*
X154560000Y-117480000D02*
X154560000Y-119480000D01*
X154560000Y-121380000D02*
X154560000Y-123280000D01*
%TO.C,R7*%
X163349000Y-106907064D02*
X163349000Y-106452936D01*
X164819000Y-106907064D02*
X164819000Y-106452936D01*
%TO.C,C9*%
X143009252Y-86641000D02*
X142486748Y-86641000D01*
X143009252Y-88111000D02*
X142486748Y-88111000D01*
%TO.C,C5*%
X146346748Y-86641000D02*
X146869252Y-86641000D01*
X146346748Y-88111000D02*
X146869252Y-88111000D01*
%TO.C,R4*%
X155221000Y-97308936D02*
X155221000Y-97763064D01*
X156691000Y-97308936D02*
X156691000Y-97763064D01*
%TO.C,C3*%
X138965000Y-108958748D02*
X138965000Y-109481252D01*
X140435000Y-108958748D02*
X140435000Y-109481252D01*
%TO.C,R3*%
X146835064Y-84609000D02*
X146380936Y-84609000D01*
X146835064Y-86079000D02*
X146380936Y-86079000D01*
%TO.C,U1*%
X143256000Y-107660000D02*
X142606000Y-107660000D01*
X143256000Y-107660000D02*
X143906000Y-107660000D01*
X143256000Y-110780000D02*
X142606000Y-110780000D01*
X143256000Y-110780000D02*
X143906000Y-110780000D01*
X144658500Y-111060000D02*
X144178500Y-111060000D01*
X144418500Y-110730000D01*
X144658500Y-111060000D01*
G36*
X144658500Y-111060000D02*
G01*
X144178500Y-111060000D01*
X144418500Y-110730000D01*
X144658500Y-111060000D01*
G37*
%TO.C,Q1*%
X161036000Y-105120000D02*
X160386000Y-105120000D01*
X161036000Y-105120000D02*
X161686000Y-105120000D01*
X161036000Y-108240000D02*
X160386000Y-108240000D01*
X161036000Y-108240000D02*
X161686000Y-108240000D01*
X159873500Y-105170000D02*
X159633500Y-104840000D01*
X160113500Y-104840000D01*
X159873500Y-105170000D01*
G36*
X159873500Y-105170000D02*
G01*
X159633500Y-104840000D01*
X160113500Y-104840000D01*
X159873500Y-105170000D01*
G37*
%TO.C,C12*%
X162821252Y-81561000D02*
X162298748Y-81561000D01*
X162821252Y-83031000D02*
X162298748Y-83031000D01*
%TO.C,BT1*%
X129694000Y-98540000D02*
X129694000Y-104660000D01*
X129694000Y-101100000D02*
X134054000Y-101100000D01*
X129694000Y-104660000D02*
X137514000Y-104660000D01*
X131954000Y-99300000D02*
X131954000Y-100300000D01*
X131954000Y-99800000D02*
X129694000Y-99800000D01*
X131954000Y-100300000D02*
X129694000Y-100300000D01*
X131954000Y-100300000D02*
X133554000Y-100300000D01*
X131954000Y-102900000D02*
X133554000Y-102900000D01*
X131954000Y-103900000D02*
X131954000Y-102900000D01*
X133554000Y-99300000D02*
X131954000Y-99300000D01*
X133554000Y-100300000D02*
X133554000Y-99300000D01*
X133554000Y-102900000D02*
X133554000Y-103900000D01*
X133554000Y-103900000D02*
X131954000Y-103900000D01*
X134054000Y-101100000D02*
X134054000Y-102100000D01*
X134054000Y-102100000D02*
X129694000Y-102100000D01*
X135914000Y-98540000D02*
X135914000Y-99460000D01*
X135914000Y-99460000D02*
X137514000Y-99460000D01*
X135914000Y-99740000D02*
X135914000Y-99460000D01*
X135914000Y-99740000D02*
X137129000Y-99740000D01*
X135914000Y-103740000D02*
X135914000Y-103460000D01*
X135914000Y-104660000D02*
X135914000Y-103740000D01*
X137514000Y-98540000D02*
X129694000Y-98540000D01*
X137514000Y-99460000D02*
X137514000Y-98540000D01*
X137514000Y-103740000D02*
X135914000Y-103740000D01*
X137514000Y-104660000D02*
X137514000Y-103740000D01*
%TO.C,C6*%
X150649000Y-101861252D02*
X150649000Y-101338748D01*
X152119000Y-101861252D02*
X152119000Y-101338748D01*
%TD*%
M02*
