M48
; DRILL file {KiCad 9.0.3} date 2025-07-16T11:43:17+0200
; FORMAT={-:-/ absolute / inch / decimal}
; #@! TF.CreationDate,2025-07-16T11:43:17+02:00
; #@! TF.GenerationSoftware,Kicad,Pcbnew,9.0.3
; #@! TF.FileFunction,Plated,1,2,PTH
FMAT,2
INCH
; #@! TA.AperFunction,Plated,PTH,ViaDrill
T1C0.0118
; #@! TA.AperFunction,Plated,PTH,ComponentDrill
T2C0.0236
; #@! TA.AperFunction,Plated,PTH,ComponentDrill
T3C0.0295
; #@! TA.AperFunction,Plated,PTH,ComponentDrill
T4C0.0394
%
G90
G05
T1
X5.3114Y-4.7791
X5.36Y-3.6108
X5.58Y-3.64
X5.62Y-3.86
X5.6552Y-3.9626
X5.7Y-3.64
X5.7056Y-3.86
X5.76Y-3.88
X5.7984Y-3.602
X5.8128Y-3.28
X5.84Y-3.62
X5.96Y-3.9592
X6.22Y-4.1606
X6.3114Y-4.7791
T3
X5.3565Y-3.9606
X5.3565Y-4.0394
T4
X5.75Y-3.14
X5.85Y-3.14
X5.95Y-3.14
X6.05Y-3.14
X6.28Y-3.7
X6.28Y-3.8
X6.28Y-3.9
X6.28Y-4.0
T2
G00X5.7299Y-4.5551
M15
G01X5.7299Y-4.5984
M16
G05
G00X5.7299Y-4.7295
M15
G01X5.7299Y-4.7531
M16
G05
G00X6.0701Y-4.5551
M15
G01X6.0701Y-4.5984
M16
G05
G00X6.0701Y-4.7295
M15
G01X6.0701Y-4.7531
M16
G05
M30
