%TF.GenerationSoftware,KiCad,Pcbnew,9.0.3*%
%TF.CreationDate,2025-07-16T11:43:19+02:00*%
%TF.ProjectId,ElbAltm1,456c6241-6c74-46d3-912e-6b696361645f,1.0*%
%TF.SameCoordinates,Original*%
%TF.FileFunction,Legend,Bot*%
%TF.FilePolarity,Positive*%
%FSLAX46Y46*%
G04 Gerber Fmt 4.6, Leading zero omitted, Abs format (unit mm)*
G04 Created by KiCad (PCBNEW 9.0.3) date 2025-07-16 11:43:19*
%MOMM*%
%LPD*%
G01*
G04 APERTURE LIST*
%ADD10C,0.150000*%
%ADD11C,0.120000*%
G04 APERTURE END LIST*
D10*
X156363200Y-115506667D02*
X156410819Y-115649524D01*
X156410819Y-115649524D02*
X156410819Y-115887619D01*
X156410819Y-115887619D02*
X156363200Y-115982857D01*
X156363200Y-115982857D02*
X156315580Y-116030476D01*
X156315580Y-116030476D02*
X156220342Y-116078095D01*
X156220342Y-116078095D02*
X156125104Y-116078095D01*
X156125104Y-116078095D02*
X156029866Y-116030476D01*
X156029866Y-116030476D02*
X155982247Y-115982857D01*
X155982247Y-115982857D02*
X155934628Y-115887619D01*
X155934628Y-115887619D02*
X155887009Y-115697143D01*
X155887009Y-115697143D02*
X155839390Y-115601905D01*
X155839390Y-115601905D02*
X155791771Y-115554286D01*
X155791771Y-115554286D02*
X155696533Y-115506667D01*
X155696533Y-115506667D02*
X155601295Y-115506667D01*
X155601295Y-115506667D02*
X155506057Y-115554286D01*
X155506057Y-115554286D02*
X155458438Y-115601905D01*
X155458438Y-115601905D02*
X155410819Y-115697143D01*
X155410819Y-115697143D02*
X155410819Y-115935238D01*
X155410819Y-115935238D02*
X155458438Y-116078095D01*
X155410819Y-116411429D02*
X156410819Y-116649524D01*
X156410819Y-116649524D02*
X155696533Y-116840000D01*
X155696533Y-116840000D02*
X156410819Y-117030476D01*
X156410819Y-117030476D02*
X155410819Y-117268572D01*
X155506057Y-117601905D02*
X155458438Y-117649524D01*
X155458438Y-117649524D02*
X155410819Y-117744762D01*
X155410819Y-117744762D02*
X155410819Y-117982857D01*
X155410819Y-117982857D02*
X155458438Y-118078095D01*
X155458438Y-118078095D02*
X155506057Y-118125714D01*
X155506057Y-118125714D02*
X155601295Y-118173333D01*
X155601295Y-118173333D02*
X155696533Y-118173333D01*
X155696533Y-118173333D02*
X155839390Y-118125714D01*
X155839390Y-118125714D02*
X156410819Y-117554286D01*
X156410819Y-117554286D02*
X156410819Y-118173333D01*
X150621904Y-81760819D02*
X150621904Y-82570342D01*
X150621904Y-82570342D02*
X150574285Y-82665580D01*
X150574285Y-82665580D02*
X150526666Y-82713200D01*
X150526666Y-82713200D02*
X150431428Y-82760819D01*
X150431428Y-82760819D02*
X150240952Y-82760819D01*
X150240952Y-82760819D02*
X150145714Y-82713200D01*
X150145714Y-82713200D02*
X150098095Y-82665580D01*
X150098095Y-82665580D02*
X150050476Y-82570342D01*
X150050476Y-82570342D02*
X150050476Y-81760819D01*
X149621904Y-81856057D02*
X149574285Y-81808438D01*
X149574285Y-81808438D02*
X149479047Y-81760819D01*
X149479047Y-81760819D02*
X149240952Y-81760819D01*
X149240952Y-81760819D02*
X149145714Y-81808438D01*
X149145714Y-81808438D02*
X149098095Y-81856057D01*
X149098095Y-81856057D02*
X149050476Y-81951295D01*
X149050476Y-81951295D02*
X149050476Y-82046533D01*
X149050476Y-82046533D02*
X149098095Y-82189390D01*
X149098095Y-82189390D02*
X149669523Y-82760819D01*
X149669523Y-82760819D02*
X149050476Y-82760819D01*
X141617200Y-115506667D02*
X141664819Y-115649524D01*
X141664819Y-115649524D02*
X141664819Y-115887619D01*
X141664819Y-115887619D02*
X141617200Y-115982857D01*
X141617200Y-115982857D02*
X141569580Y-116030476D01*
X141569580Y-116030476D02*
X141474342Y-116078095D01*
X141474342Y-116078095D02*
X141379104Y-116078095D01*
X141379104Y-116078095D02*
X141283866Y-116030476D01*
X141283866Y-116030476D02*
X141236247Y-115982857D01*
X141236247Y-115982857D02*
X141188628Y-115887619D01*
X141188628Y-115887619D02*
X141141009Y-115697143D01*
X141141009Y-115697143D02*
X141093390Y-115601905D01*
X141093390Y-115601905D02*
X141045771Y-115554286D01*
X141045771Y-115554286D02*
X140950533Y-115506667D01*
X140950533Y-115506667D02*
X140855295Y-115506667D01*
X140855295Y-115506667D02*
X140760057Y-115554286D01*
X140760057Y-115554286D02*
X140712438Y-115601905D01*
X140712438Y-115601905D02*
X140664819Y-115697143D01*
X140664819Y-115697143D02*
X140664819Y-115935238D01*
X140664819Y-115935238D02*
X140712438Y-116078095D01*
X140664819Y-116411429D02*
X141664819Y-116649524D01*
X141664819Y-116649524D02*
X140950533Y-116840000D01*
X140950533Y-116840000D02*
X141664819Y-117030476D01*
X141664819Y-117030476D02*
X140664819Y-117268572D01*
X140664819Y-117554286D02*
X140664819Y-118173333D01*
X140664819Y-118173333D02*
X141045771Y-117840000D01*
X141045771Y-117840000D02*
X141045771Y-117982857D01*
X141045771Y-117982857D02*
X141093390Y-118078095D01*
X141093390Y-118078095D02*
X141141009Y-118125714D01*
X141141009Y-118125714D02*
X141236247Y-118173333D01*
X141236247Y-118173333D02*
X141474342Y-118173333D01*
X141474342Y-118173333D02*
X141569580Y-118125714D01*
X141569580Y-118125714D02*
X141617200Y-118078095D01*
X141617200Y-118078095D02*
X141664819Y-117982857D01*
X141664819Y-117982857D02*
X141664819Y-117697143D01*
X141664819Y-117697143D02*
X141617200Y-117601905D01*
X141617200Y-117601905D02*
X141569580Y-117554286D01*
X167017200Y-115506667D02*
X167064819Y-115649524D01*
X167064819Y-115649524D02*
X167064819Y-115887619D01*
X167064819Y-115887619D02*
X167017200Y-115982857D01*
X167017200Y-115982857D02*
X166969580Y-116030476D01*
X166969580Y-116030476D02*
X166874342Y-116078095D01*
X166874342Y-116078095D02*
X166779104Y-116078095D01*
X166779104Y-116078095D02*
X166683866Y-116030476D01*
X166683866Y-116030476D02*
X166636247Y-115982857D01*
X166636247Y-115982857D02*
X166588628Y-115887619D01*
X166588628Y-115887619D02*
X166541009Y-115697143D01*
X166541009Y-115697143D02*
X166493390Y-115601905D01*
X166493390Y-115601905D02*
X166445771Y-115554286D01*
X166445771Y-115554286D02*
X166350533Y-115506667D01*
X166350533Y-115506667D02*
X166255295Y-115506667D01*
X166255295Y-115506667D02*
X166160057Y-115554286D01*
X166160057Y-115554286D02*
X166112438Y-115601905D01*
X166112438Y-115601905D02*
X166064819Y-115697143D01*
X166064819Y-115697143D02*
X166064819Y-115935238D01*
X166064819Y-115935238D02*
X166112438Y-116078095D01*
X166064819Y-116411429D02*
X167064819Y-116649524D01*
X167064819Y-116649524D02*
X166350533Y-116840000D01*
X166350533Y-116840000D02*
X167064819Y-117030476D01*
X167064819Y-117030476D02*
X166064819Y-117268572D01*
X167064819Y-118173333D02*
X167064819Y-117601905D01*
X167064819Y-117887619D02*
X166064819Y-117887619D01*
X166064819Y-117887619D02*
X166207676Y-117792381D01*
X166207676Y-117792381D02*
X166302914Y-117697143D01*
X166302914Y-117697143D02*
X166350533Y-117601905D01*
D11*
%TO.C,SW2*%
X146760000Y-113740000D02*
X146860000Y-113740000D01*
X146760000Y-119940000D02*
X146760000Y-113740000D01*
X146760000Y-119940000D02*
X146860000Y-119940000D01*
X151360000Y-113740000D02*
X148360000Y-113740000D01*
X151360000Y-119940000D02*
X148360000Y-119940000D01*
X152860000Y-113740000D02*
X152960000Y-113740000D01*
X152960000Y-119940000D02*
X152860000Y-119940000D01*
X152960000Y-119940000D02*
X152960000Y-113740000D01*
%TO.C,U2*%
X132334000Y-78486000D02*
X132334000Y-110744000D01*
X132334000Y-110744000D02*
X167386000Y-110744000D01*
X153098000Y-77375000D02*
X154114000Y-77375000D01*
X153606000Y-78137000D02*
X153098000Y-77375000D01*
X154114000Y-77375000D02*
X153606000Y-78137000D01*
X167386000Y-78486000D02*
X132334000Y-78486000D01*
X167386000Y-78486000D02*
X167386000Y-110744000D01*
X167132000Y-83312000D02*
X132588000Y-83312000D01*
X132588000Y-105664000D01*
X167132000Y-105664000D01*
X167132000Y-83312000D01*
X136714538Y-80772000D02*
G75*
G02*
X132525462Y-80772000I-2094538J0D01*
G01*
X132525462Y-80772000D02*
G75*
G02*
X136714538Y-80772000I2094538J0D01*
G01*
X136714538Y-108204000D02*
G75*
G02*
X132525462Y-108204000I-2094538J0D01*
G01*
X132525462Y-108204000D02*
G75*
G02*
X136714538Y-108204000I2094538J0D01*
G01*
X167194538Y-80772000D02*
G75*
G02*
X163005462Y-80772000I-2094538J0D01*
G01*
X163005462Y-80772000D02*
G75*
G02*
X167194538Y-80772000I2094538J0D01*
G01*
X167194538Y-108204000D02*
G75*
G02*
X163005462Y-108204000I-2094538J0D01*
G01*
X163005462Y-108204000D02*
G75*
G02*
X167194538Y-108204000I2094538J0D01*
G01*
%TO.C,SW3*%
X134060000Y-113740000D02*
X134160000Y-113740000D01*
X134060000Y-119940000D02*
X134060000Y-113740000D01*
X134060000Y-119940000D02*
X134160000Y-119940000D01*
X138660000Y-113740000D02*
X135660000Y-113740000D01*
X138660000Y-119940000D02*
X135660000Y-119940000D01*
X140160000Y-113740000D02*
X140260000Y-113740000D01*
X140260000Y-119940000D02*
X140160000Y-119940000D01*
X140260000Y-119940000D02*
X140260000Y-113740000D01*
%TO.C,SW1*%
X159460000Y-113740000D02*
X159560000Y-113740000D01*
X159460000Y-119940000D02*
X159460000Y-113740000D01*
X159460000Y-119940000D02*
X159560000Y-119940000D01*
X164060000Y-113740000D02*
X161060000Y-113740000D01*
X164060000Y-119940000D02*
X161060000Y-119940000D01*
X165560000Y-113740000D02*
X165660000Y-113740000D01*
X165660000Y-119940000D02*
X165560000Y-119940000D01*
X165660000Y-119940000D02*
X165660000Y-113740000D01*
%TD*%
M02*
